<?xml version="1.0" encoding="utf-8"?>
<!-- Generator: Adobe Illustrator 23.0.1, SVG Export Plug-In . SVG Version: 6.00 Build 0)  -->
<svg version="1.1" id="Layer_1" xmlns="http://www.w3.org/2000/svg" xmlns:xlink="http://www.w3.org/1999/xlink" x="0px" y="0px"
	 width="28.3px" height="20.6px" viewBox="0 0 28.3 20.6" style="enable-background:new 0 0 28.3 20.6;" xml:space="preserve">
<style type="text/css">
	.st0{fill-rule:evenodd;clip-rule:evenodd;}
</style>
<path id="Logo" class="st0" d="M27.7,1.1c0.2-0.7,0-1.1-0.9-1.1h-3.1c-0.8,0-1.2,0.4-1.4,0.9c0,0-1.6,3.9-3.8,6.3
	c-0.7,0.7-1,1-1.4,1c-0.2,0-0.5-0.2-0.5-0.9V1.1c0-0.8-0.2-1.1-0.9-1.1h-4.9C10.3,0,10,0.4,10,0.7c0,0.8,1.1,0.9,1.2,3v4.6
	c0,1-0.2,1.2-0.6,1.2c-1,0-3.6-3.9-5.1-8.3C5.3,0.4,5,0,4.2,0H1.1C0.2,0,0,0.4,0,0.9c0,0.8,1,4.9,4.9,10.3c2.6,3.7,6.2,5.7,9.5,5.7
	c2,0,2.2-0.4,2.2-1.2v-2.8c0-0.9,0.2-1.1,0.8-1.1c0.5,0,1.2,0.2,3.1,2c2.1,2.1,2.5,3.1,3.6,3.1h3.1c0.9,0,1.3-0.4,1.1-1.3
	c-0.3-0.9-1.3-2.1-2.6-3.6c-0.7-0.9-1.8-1.8-2.1-2.2c-0.5-0.6-0.3-0.9,0-1.4C23.5,8.3,27.3,2.9,27.7,1.1L27.7,1.1z"/>
</svg>
