<svg fill="none" height="25" viewBox="0 0 14 25" width="14" xmlns="http://www.w3.org/2000/svg"><path clip-rule="evenodd" d="m13.0476.00538847-3.25109-.00538847c-3.65369 0-6.01402 2.40595-6.01402 6.13208v2.82625h-3.270024c-.283347 0-.512466.22767-.512466.50787v4.0966c0 .2815.229119.5078.512466.5078h3.270024v10.3378c0 .2802.22776.5079.50975.5079h4.26649c.28199 0 .51111-.2277.51111-.5079v-10.3378h3.82316c.282 0 .5111-.2263.5111-.5078l.0014-4.0966c0-.13337-.0543-.26269-.1492-.35834-.0962-.09429-.2264-.14953-.3619-.14953h-3.82456v-2.39652c0-1.15044.27657-1.73643 1.78686-1.73643l2.1909-.00135c.2819 0 .5097-.22766.5097-.50786v-3.802918c0-.280201-.2278-.50786353-.5097-.50786353z" fill="#000" fill-rule="evenodd"/></svg>