<?xml version="1.0" encoding="utf-8"?>
<!-- Generator: Adobe Illustrator 23.0.1, SVG Export Plug-In . SVG Version: 6.00 Build 0)  -->
<svg version="1.1" id="Layer_1" xmlns="http://www.w3.org/2000/svg" xmlns:xlink="http://www.w3.org/1999/xlink" x="0px" y="0px"
	 width="198px" height="128px" viewBox="0 0 198 128" style="enable-background:new 0 0 198 128;" xml:space="preserve">
<style type="text/css">
	.st0{fill-rule:evenodd;clip-rule:evenodd;fill:#231F20;}
	.st1{fill:#FFFFFF;}
	.st2{fill:#1B7FF6;}
	.st3{fill:none;stroke:#FFFFFF;stroke-linecap:round;}
</style>
<rect x="10.5" y="25.7" class="st0" width="35.7" height="35.7"/>
<path class="st1" d="M170,80.1c-1.5-1.4-2.6-3.6-2.9-5.6c-0.5-4-0.6-8.1-0.6-12c0-4.8-1.9-9-5.8-12.5c-1.4-1.3-2.8-2.6-3.8-4.1
	c-2.1-3.3-0.1-6.4,4.3-6.8c5.9-0.4,9.6-3,11.1-8.1c0-0.1,0-0.2,0-0.4c0.5-1.1,0.9-2.4-0.1-2.6c-0.4-0.1-0.8-0.2-1.1-0.3
	c-1.8-2.3-3.6-4.4-5.5-6.5c-1.4-1.6-2.5-3.4-4.3-4.6c-4.1-2.8-4.8-3.9-3.3-8.3c0.8-2.1,1.3-4.4,1.9-6.7c-0.4-0.1-0.8-0.3-1.1-0.4
	c-3.1,2.5-6.4,4.7-9.3,7.3c-6.3,5.4-13.4,10-17,17.2c-7.3,14.6-12.3,29.6-11.9,45.6c0,1.1-0.3,2.5-1,3.1c-8.5,7.8-9.9,17.6-9.1,27.4
	c0.5,6.1,3.4,12.2,5.1,18.1c-7.8,0.3-16.4-4.2-19.9-10.6c-2.5-4.8-2.8-9.8-2.4-14.9c0.6-8.6,3.9-16.5,7.4-24.4
	c2.8-6.4,3.9-13,1.8-19.8c-3.3-10.9-17.1-16-27.8-10.2c-3.3,1.7-5.3,4.7-4.3,7.2c0.5,1.2,2.1,2.7,3.5,2.9c1.3,0.2,3.4-1,4.1-1.9
	c1.5-1.9,3.3-2.8,5.8-2.7c4.5,0.2,8.4,2.9,9.9,7.1c2,5.8,0.4,11.3-2.1,16.5c-4.9,10.4-7.6,21.1-7.3,32.5
	c0.5,14.7,11.8,25.5,28.9,26.2c13.9,0.5,27.9,0.1,41.9,0.1c8.5,0,11.3-1.7,13.9-8.7c3.3-8.4,4.8-17.1,5.9-25.9
	C175.5,88.2,174,84,170,80.1z"/>
<path class="st2" d="M-0.1,61.5v20.6h6.2v45.7h80.1V82.2h6.2V61.5H-0.1z M11.1,122.9V81.6h70.2V123L11.1,122.9L11.1,122.9z"/>
<line class="st3" x1="158.5" y1="37.6" x2="165.3" y2="45"/>
<line class="st3" x1="161" y1="35" x2="167.9" y2="39.4"/>
<line class="st3" x1="162.3" y1="31.6" x2="169.5" y2="33.5"/>
</svg>
