<?xml version="1.0" encoding="utf-8"?>
<!-- Generator: Adobe Illustrator 23.0.1, SVG Export Plug-In . SVG Version: 6.00 Build 0)  -->
<svg version="1.1" id="Layer_1" xmlns="http://www.w3.org/2000/svg" xmlns:xlink="http://www.w3.org/1999/xlink" x="0px" y="0px"
	 width="198px" height="128px" viewBox="0 0 198 128" style="enable-background:new 0 0 198 128;" xml:space="preserve">
<style type="text/css">
	.st0{fill:#F7CC65;}
	.st1{fill:#FFFFFF;}
</style>
<path class="st0" d="M143.2,52c-11.3-9-20.4-18.4-25.8-26.1l-98,31.9C8.2,61.5,0.6,72,0.6,83.8v43.8h130.1
	c12.5,0,23.3-8.4,26.5-20.5l10.1-39.2C160,64.2,151.6,58.7,143.2,52z"/>
<g>
	<g>
		<ellipse cx="62.7" cy="78.2" rx="10.7" ry="20.3"/>
		<path d="M62.7,100.5c-7.1,0-12.7-9.8-12.7-22.3s5.6-22.3,12.7-22.3c7.1,0,12.7,9.8,12.7,22.3S69.8,100.5,62.7,100.5z M62.7,59.9
			c-5.1,0-8.7,9.6-8.7,18.3c0,8.7,3.6,18.3,8.7,18.3s8.7-9.6,8.7-18.3C71.4,69.5,67.8,59.9,62.7,59.9z"/>
	</g>
	<g>
		<g>
			<path d="M37.8,115.7c0-5.1,3.1-9.6,7.8-11.5l1.9-0.8c9.7-3.8,20.6-3.8,30.3,0l1.9,0.8c4.7,1.9,7.8,6.4,7.8,11.5
				c0,2.3-1.9,4.2-4.2,4.2H41.9C39.6,119.8,37.8,118,37.8,115.7z"/>
			<path d="M83.3,121.9H41.9c-3.5-0.1-6.1-2.9-6.1-6.2c0-5.9,3.6-11.1,9.1-13.4l1.9-0.8c10.3-4,21.6-4,31.8,0l1.9,0.8
				c5.5,2.2,9,7.5,9,13.3C89.5,119.1,86.7,121.9,83.3,121.9z M62.7,102.6c-4.9,0-9.8,0.9-14.4,2.7l-1.9,0.8c-4,1.6-6.6,5.4-6.6,9.7
				c0,1.2,0.9,2.1,2.2,2.2l41.3,0c1.2,0,2.2-1,2.2-2.2c0-4.3-2.6-8-6.5-9.6l-1.9-0.8C72.5,103.5,67.6,102.6,62.7,102.6z"/>
		</g>
		<g>
			<ellipse cx="31.9" cy="91.7" rx="14.3" ry="9.4"/>
			<path d="M31.9,103.1c-9.1,0-16.3-5-16.3-11.4s7.2-11.4,16.3-11.4s16.3,5,16.3,11.4S41,103.1,31.9,103.1z M31.9,84.3
				c-6.7,0-12.3,3.4-12.3,7.4c0,4,5.6,7.4,12.3,7.4c6.7,0,12.3-3.4,12.3-7.4C44.2,87.7,38.6,84.3,31.9,84.3z"/>
		</g>
		<g>
			<path d="M42.9,119.8H17.2c-1.6,0-2.9-1.3-2.9-2.9c0-3.6,2.2-6.8,5.5-8.2l1.4-0.5c6.3-2.5,13.3-2.7,19.7-0.6"/>
			<path d="M42.9,121.8H17.2c-2.7,0-4.9-2.2-4.9-4.9c0-4.4,2.6-8.3,6.7-10l0.1,0l1.4-0.5c6.7-2.6,14.1-2.9,21-0.6l-1.2,3.8
				c-6-2-12.5-1.8-18.3,0.6l-1.4,0.5c-2.6,1.1-4.2,3.6-4.2,6.3c0,0.5,0.4,0.9,0.9,0.9h25.7V121.8z"/>
		</g>
		<g>
			<path d="M85.3,107.6c6.4-2,13.4-1.9,19.7,0.6l1.4,0.5c3.3,1.4,5.5,4.5,5.5,8.2c0,1.6-1.3,2.9-2.9,2.9H83.2"/>
			<path d="M109,121.8H83.2v-4H109c0.5,0,0.9-0.4,0.9-0.9c0-2.8-1.6-5.2-4.2-6.3l-1.3-0.5c-5.8-2.3-12.3-2.5-18.4-0.6l-1.2-3.8
				c7-2.2,14.5-2,21,0.6l1.4,0.5c4.1,1.8,6.7,5.6,6.7,10C113.9,119.6,111.7,121.8,109,121.8z"/>
		</g>
		<g>
			<path d="M89.6,80.6h10.9v19.8H89.6V80.6z"/>
			<path d="M102.5,102.4H87.6V78.6h14.9V102.4z M91.6,98.4h6.9V82.6h-6.9V98.4z"/>
		</g>
		<g>
			<ellipse cx="18.8" cy="74.2" rx="1.6" ry="1.7"/>
			<path d="M18.8,77.9c-2,0-3.6-1.7-3.6-3.7s1.6-3.7,3.6-3.7s3.6,1.7,3.6,3.7S20.8,77.9,18.8,77.9z M18.8,73.9
				c-0.2,0-0.4,0.1-0.4,0.3c0,0.2,0.2,0.3,0.4,0.3c0.2,0,0.4-0.1,0.4-0.3S19,73.9,18.8,73.9z"/>
		</g>
		<g>
			<path d="M23.4,84.5L19.3,75"/>
			<rect x="19.3" y="74.6" transform="matrix(0.9181 -0.3963 0.3963 0.9181 -29.8541 14.9885)" width="4" height="10.3"/>
		</g>
		<g>
			<ellipse cx="43.5" cy="74.2" rx="1.6" ry="1.7"/>
			<path d="M43.5,77.9c-2,0-3.6-1.7-3.6-3.7s1.6-3.7,3.6-3.7s3.6,1.7,3.6,3.7S45.5,77.9,43.5,77.9z M43.5,73.9
				c-0.2,0-0.4,0.1-0.4,0.3c0,0.2,0.2,0.3,0.4,0.3s0.4-0.1,0.4-0.3C43.9,74,43.7,73.9,43.5,73.9z"/>
		</g>
		<g>
			<path d="M38.9,84.5L43,75"/>
			<rect x="35.8" y="77.8" transform="matrix(0.3964 -0.9181 0.9181 0.3964 -48.4998 85.7304)" width="10.3" height="4"/>
		</g>
	</g>
</g>
<path class="st1" d="M180.7,60l1.4-9.9l0,0c2.1-4.4-7-16.5-20.9-27.6s-27.8-17.2-31.8-14l0,0l-8.6,3.9C103,2.7,89-0.8,84.7,4.6
	c-6.7,8.3,12.9,34.9,43.7,59.3S189.3,101.3,196,93C200.1,87.5,193.7,74.9,180.7,60z"/>
</svg>
