<?xml version="1.0" encoding="utf-8"?>
<!-- Generator: Adobe Illustrator 23.0.1, SVG Export Plug-In . SVG Version: 6.00 Build 0)  -->
<svg version="1.1" id="Layer_1" xmlns="http://www.w3.org/2000/svg" xmlns:xlink="http://www.w3.org/1999/xlink" x="0px" y="0px"
	 width="198px" height="128px" viewBox="0 0 198 128" style="enable-background:new 0 0 198 128;" xml:space="preserve">
<style type="text/css">
	.st0{enable-background:new    ;}
	.st1{fill:#F7CC65;}
	.st2{fill:#FFFFFF;}
	.st3{fill:none;stroke:#FFFFFF;stroke-width:3;stroke-miterlimit:10;}
</style>
<g class="st0">
	<path class="st1" d="M88.8,0h-45c-7.9,0-14.1,6.4-14.1,14.1V28c0,7.9,6.4,14.1,14.1,14.1h0.5c0.4,11.1-6.9,12-7.9,12
		c9.1,0,15.4-6.4,19.1-12h33.4c7.9,0,14.1-6.4,14.1-14.1V14.1C102.8,6.2,96.5,0,88.8,0z"/>
	<path class="st1" d="M36.2,54L36.2,54C36.1,54,36.2,54,36.2,54z"/>
</g>
<g>
	<path class="st1" d="M82.5,48.9H112c5,0,9.3,4.1,9.3,9.3v4.4c0,5-4.1,9.3-9.3,9.3h-0.3c-0.3,7.3,4.5,7.8,5.2,7.8
		c-6,0-10.1-4.2-12.5-7.8H82.5c-5,0-9.3-4.1-9.3-9.3v-4.4C73.2,53,77.4,48.9,82.5,48.9z"/>
	<path class="st1" d="M116.9,79.6L116.9,79.6L116.9,79.6z"/>
</g>
<g>
	<g>
		<path d="M22,83.4c-10.9,0-19.6,8.9-19.6,19.6v24h39.3v-24C41.7,92.2,32.9,83.4,22,83.4z"/>
		<path d="M43.2,127H0.9v-24c0-11.6,9.5-21.1,21.1-21.1c11.7,0,21.2,9.5,21.2,21.1V127z M3.9,123.9h36.3V103
			c0-10-8.2-18.1-18.2-18.1S3.9,93,3.9,103V123.9z"/>
	</g>
	<g>
		<ellipse cx="22" cy="69.9" rx="13.5" ry="13.5"/>
		<path d="M22,84.9c-8.3,0-15-6.7-15-15s6.7-15,15-15s15,6.7,15,15S30.3,84.9,22,84.9z M22,57.9c-6.6,0-12,5.4-12,12s5.4,12,12,12
			s12-5.4,12-12S28.6,57.9,22,57.9z"/>
	</g>
	<g>
		<path d="M56.3,94.3c-8,0-14.6,6.5-14.6,14.6V127h28.9v-18.2C70.9,100.7,64.2,94.3,56.3,94.3z"/>
		<path d="M72.1,127H40.2v-18.1c0-8.9,7.2-16.1,16.1-16.1c4.3,0,8.5,1.8,11.5,4.9c2.9,3,4.4,7,4.3,11.2L72.1,127z M43.2,124h25.9
			v-15.2c0.1-3.4-1.1-6.6-3.4-9c-2.4-2.5-5.8-4-9.4-4c-7.2,0-13.1,5.9-13.1,13.1C43.2,108.9,43.2,124,43.2,124z"/>
	</g>
	<g>
		<ellipse cx="56.3" cy="84.2" rx="10" ry="10"/>
		<path d="M56.3,95.7c-6.3,0-11.5-5.2-11.5-11.5S50,72.7,56.3,72.7s11.5,5.2,11.5,11.5S62.6,95.7,56.3,95.7z M56.3,75.7
			c-4.7,0-8.5,3.8-8.5,8.5s3.8,8.5,8.5,8.5s8.5-3.8,8.5-8.5S61,75.7,56.3,75.7z"/>
	</g>
	<g>
		<path d="M81.5,101.9c-6.1,0-11,4.9-11,11V127h22v-14.1C92.4,106.9,87.6,101.9,81.5,101.9z"/>
		<path d="M94,127H69v-14.1c0-6.9,5.6-12.5,12.5-12.5c6.8,0,12.4,5.6,12.5,12.5V127z M72,124h19v-11.1c-0.1-5.2-4.3-9.5-9.5-9.5
			s-9.5,4.3-9.5,9.5V124z"/>
	</g>
	<g>
		<ellipse cx="81.5" cy="94.3" rx="7.6" ry="7.6"/>
		<path d="M81.5,103.4c-5,0-9.1-4.1-9.1-9.1s4.1-9.1,9.1-9.1s9.1,4.1,9.1,9.1S86.5,103.4,81.5,103.4z M81.5,88.2
			c-3.4,0-6.1,2.7-6.1,6.1s2.7,6.1,6.1,6.1s6.1-2.7,6.1-6.1C87.6,90.9,84.9,88.2,81.5,88.2z"/>
	</g>
</g>
<g>
	<path class="st2" d="M130.9,95.5c-8.1,0-14.7,6.6-14.7,14.7V127h29.4v-16.8C145.5,102.2,139.1,95.5,130.9,95.5z"/>
	<ellipse class="st2" cx="130.9" cy="85.4" rx="10.1" ry="10.1"/>
</g>
<g>
	<line class="st3" x1="44.1" y1="12.2" x2="61.5" y2="12.2"/>
	<line class="st3" x1="64.6" y1="12.2" x2="93.3" y2="12.2"/>
	<line class="st3" x1="44.1" y1="20.5" x2="50.8" y2="20.5"/>
	<line class="st3" x1="54" y1="20.5" x2="85.2" y2="20.5"/>
	<line class="st3" x1="44.1" y1="28.6" x2="59" y2="28.6"/>
	<line class="st3" x1="62.1" y1="28.6" x2="77" y2="28.6"/>
</g>
</svg>
