<?xml version="1.0" encoding="utf-8"?>
<!-- Generator: Adobe Illustrator 23.0.1, SVG Export Plug-In . SVG Version: 6.00 Build 0)  -->
<svg version="1.1" id="Layer_1" xmlns="http://www.w3.org/2000/svg" xmlns:xlink="http://www.w3.org/1999/xlink" x="0px" y="0px"
	 width="198px" height="128px" viewBox="0 0 198 128" style="enable-background:new 0 0 198 128;" xml:space="preserve">
<style type="text/css">
	.st0{fill:#FFFFFF;}
	.st1{fill:#1B7FF6;}
</style>
<path d="M31.6,111.3H16.5c-8.9-0.6-15.9-8.1-15.9-17.1c0-8.3,5.8-15.2,13.7-16.8c2.9-12,13.7-20.9,26.5-20.9s23.5,8.9,26.4,20.8
	c8.2,1.2,14.5,8.4,14.5,16.9c0,9.1-7,16.5-15.9,17.1H50.7"/>
<path class="st0" d="M165.6,94.3h-63.7h-0.5c-10.1-0.5-17.8-9.1-17.8-19.2c0-9.2,6.7-17,15.5-19l3.5-0.8l0.8-3.5
	c3.7-15,17-26,33.1-26c16,0,29.2,10.9,33.1,25.9l0.8,3.7l3.7,0.5c9.2,1.3,16.3,9.2,16.3,19c0,10.1-8.1,18.3-17.8,19.2h-0.5h-6
	L165.6,94.3z"/>
<path class="st0" d="M27,83.8v13.1h28.2V83.8H27z M33.5,92.5c-1.2,0-2.2-1-2.2-2.2s1-2.2,2.2-2.2s2.2,1,2.2,2.2
	C35.8,91.4,34.8,92.5,33.5,92.5z"/>
<path class="st0" d="M27,98.4v13.1h28.2V98.4H27z M33.5,107c-1.2,0-2.2-1-2.2-2.2s1-2.2,2.2-2.2s2.2,1,2.2,2.2
	C35.8,106,34.8,107,33.5,107z"/>
<path d="M27,112.9V126h28.2v-13.1H27z M33.5,121.6c-1.2,0-2.2-1-2.2-2.2s1-2.2,2.2-2.2s2.2,1,2.2,2.2
	C35.8,120.6,34.8,121.6,33.5,121.6z"/>
<path class="st1" d="M137.3,98.4v13.1h28.2V98.4H137.3z M143.8,107c-1.2,0-2.2-1-2.2-2.2s1-2.2,2.2-2.2s2.2,1,2.2,2.2
	C146.1,106,145,107,143.8,107z"/>
<path class="st1" d="M137.3,112.9V126h28.2v-13.1H137.3z M143.8,121.6c-1.2,0-2.2-1-2.2-2.2s1-2.2,2.2-2.2s2.2,1,2.2,2.2
	C146.1,120.6,145,121.6,143.8,121.6z"/>
<path class="st1" d="M107.3,98.4v13.1h28.2V98.4H107.3z M113.8,107c-1.2,0-2.2-1-2.2-2.2s1-2.2,2.2-2.2s2.2,1,2.2,2.2
	C116.1,106,115.1,107,113.8,107z"/>
<path class="st1" d="M107.3,112.9V126h28.2v-13.1H107.3z M113.8,121.6c-1.2,0-2.2-1-2.2-2.2s1-2.2,2.2-2.2s2.2,1,2.2,2.2
	C116.1,120.6,115.1,121.6,113.8,121.6z"/>
<path class="st1" d="M167,98.4v13.1h28.2V98.4H167z M173.5,107c-1.2,0-2.2-1-2.2-2.2s1-2.2,2.2-2.2s2.2,1,2.2,2.2
	S174.7,107,173.5,107z"/>
<path class="st1" d="M167,112.9V126h28.2v-13.1H167z M173.5,121.6c-1.2,0-2.2-1-2.2-2.2s1-2.2,2.2-2.2s2.2,1,2.2,2.2
	S174.7,121.6,173.5,121.6z"/>
<path class="st1" d="M108.4,73.8H74.7h-0.3C69.1,73.5,65,69,65,63.6c0-4.9,3.5-9,8.2-10l1.8-0.4l0.4-1.8c2-7.9,9-13.8,17.5-13.8
	s15.5,5.8,17.5,13.7l0.4,2l2,0.3c4.9,0.7,8.6,4.9,8.6,10c0,5.4-4.2,9.7-9.4,10.2h-0.3L108.4,73.8L108.4,73.8z"/>
</svg>
