<svg fill="none" height="24" viewBox="0 0 24 24" width="24" xmlns="http://www.w3.org/2000/svg"><path clip-rule="evenodd" d="m16.7813 5.04533c0 1.06934.8694 1.93867 1.9387 1.93867s1.94-.86933 1.94-1.93867c0-1.06933-.8707-1.93866-1.94-1.93866s-1.9387.86933-1.9387 1.93866zm-11.34263 6.95467c0 3.6187 2.944 6.5627 6.56133 6.5627 3.62 0 6.5627-2.944 6.5627-6.5627 0-3.61867-2.9427-6.56267-6.5627-6.56267-3.61733 0-6.56133 2.944-6.56133 6.56267zm1.05866-12h11.00667c3.5827 0 6.496 2.91333 6.496 6.496v11.008c0 3.5813-2.9133 6.496-6.496 6.496h-11.00667c-3.58266 0-6.49733-2.9147-6.49733-6.496v-11.008c0-3.58267 2.91467-6.496 6.49733-6.496zm5.50267 16c2.2091 0 4-1.7909 4-4 0-2.20914-1.7909-4-4-4-2.20914 0-4 1.79086-4 4 0 2.2091 1.79086 4 4 4z" fill="#000" fill-rule="evenodd"/></svg>