<?xml version="1.0" encoding="utf-8"?>
<!-- Generator: Adobe Illustrator 23.0.1, SVG Export Plug-In . SVG Version: 6.00 Build 0)  -->
<svg version="1.1" id="Layer_1" xmlns="http://www.w3.org/2000/svg" xmlns:xlink="http://www.w3.org/1999/xlink" x="0px" y="0px"
	 width="198px" height="128px" viewBox="0 0 198 128" style="enable-background:new 0 0 198 128;" xml:space="preserve">
<style type="text/css">
	.st0{fill:#F7CC65;enable-background:new    ;}
	.st1{fill:#FFFFFF;}
</style>
<circle class="st0" cx="37.3" cy="90.5" r="37"/>
<g>
	<circle cx="92.4" cy="90.7" r="33.8"/>
	<path d="M92.4,127c-20,0-36.3-16.3-36.3-36.3c0-20,16.3-36.3,36.3-36.3c20,0,36.3,16.3,36.3,36.3C128.7,110.7,112.4,127,92.4,127z
		 M92.4,59.4c-17.3,0-31.3,14-31.3,31.3c0,17.3,14,31.3,31.3,31.3c17.3,0,31.3-14,31.3-31.3C123.7,73.4,109.7,59.4,92.4,59.4z"/>
</g>
<path d="M105.8,47.5H81.4c-1.4,0-2.5-1.1-2.5-2.5s1.1-2.5,2.5-2.5h24.4c1.4,0,2.5,1.1,2.5,2.5S107.2,47.5,105.8,47.5z"/>
<path class="st1" d="M48,79H27c-1.1,0-2-0.9-2-2s0.9-2,2-2h21c1.1,0,2,0.9,2,2S49.1,79,48,79z"/>
<path class="st1" d="M48,104H27c-1.1,0-2-0.9-2-2s0.9-2,2-2h21c1.1,0,2,0.9,2,2S49.1,104,48,104z"/>
<path class="st1" d="M37.3,91.6h-21c-1.1,0-2-0.9-2-2s0.9-2,2-2h21c1.1,0,2,0.9,2,2S38.4,91.6,37.3,91.6z"/>
<path class="st1" d="M93.6,91.5l-6.9-6.9c-0.8-0.8-0.8-2,0-2.8c0.8-0.8,2-0.8,2.8,0l4.1,4.1l13.6-12.7c0.8-0.8,2.1-0.7,2.8,0.1
	c0.8,0.8,0.7,2.1-0.1,2.8L93.6,91.5z"/>
<path class="st1" d="M187.1,13.4h-81.3v15.2H116c-0.2,5.1,0.9,16.9,12.7,23.9c12.3,7.4,11,16.7,11,17.1l-0.4,2.3l0,0l0,0V72h0.2
	l0.4,2.3c0,0.4,1.5,9.7-11,17.1c-9.9,5.9-12.3,15.2-12.7,21H106v15.2h81.3v-15.2h-10.2c-0.4-5.9-2.8-15-12.7-21
	c-12.3-7.4-11-16.7-11-17.1l0.4-2.3l0,0l0,0v-0.2h-0.2l-0.4-2.3c0-0.4-1.5-9.7,11-17.1c11.7-7,12.9-18.8,12.7-23.9h10.2V13.4z"/>
</svg>
