<?xml version="1.0" encoding="utf-8"?>
<!-- Generator: Adobe Illustrator 23.0.1, SVG Export Plug-In . SVG Version: 6.00 Build 0)  -->
<svg version="1.1" id="Layer_1" xmlns="http://www.w3.org/2000/svg" xmlns:xlink="http://www.w3.org/1999/xlink" x="0px" y="0px"
	 width="304px" height="256.6px" viewBox="0 0 304 256.6" style="enable-background:new 0 0 304 256.6;" xml:space="preserve">
<style type="text/css">
	.st0{fill:#FFFFFF;}
</style>
<g>
	<path class="st0" d="M4.1,73.8l-3,3.7C0.2,78.6,0,79.2,0,81v29.4c0,1.8,0.2,2.4,1.1,3.5l3,3.7c1.6,1.9,2.1,1.9,4.4,1.9h34.9V113
		H8.7c-1.1,0-1.5-0.6-1.5-1.5V98.7h35.2v-6.3H7.2V79.9c0-0.9,0.4-1.5,1.5-1.5h34.7v-6.5H8.5C6.2,71.9,5.7,71.9,4.1,73.8z"/>
	<path class="st0" d="M117.2,74.6l-5.6-2.4c-2.7-1.1-3.3-1.1-4.9,1.6L89.5,103c-0.5,0.9-0.7,1.1-1.2,1.1c-0.4,0-0.6-0.1-1.2-1.1
		L69.9,73.7c-1.4-2.4-2.1-2.8-4.9-1.5l-5.7,2.6c-1.9,0.9-1.9,1.9-1.9,3.8v40.9h6.9v-40c0-0.6,0.7-0.9,1.1-0.2l17.8,30.2h9.6
		l17.9-30.1c0.4-0.7,1.1-0.4,1.1,0.2v39.9h7.1V78.4C118.9,76.5,119,75.4,117.2,74.6z"/>
	<path class="st0" d="M270.6,78.4H304v-6.5h-33.6c-2.3,0-2.8,0-4.4,1.9l-3,3.7c-0.9,1.1-1.1,1.7-1.1,3.4v29.5c0,1.8,0.2,2.4,1.1,3.5
		l3,3.7c1.6,1.9,2.1,1.9,4.4,1.9H304V113h-33.4c-1.1,0-1.5-0.6-1.5-1.5V79.9C269.1,79,269.5,78.4,270.6,78.4z"/>
	<path class="st0" d="M252.7,94.3H240L231.6,74c-0.5-1.2-1.4-2.1-2.8-2.1h-14.4c-1.5,0-2.3,0.9-2.8,2.1l-19.1,45.5h7.6l16.6-40.3
		c0.4-0.9,0.8-1,1.5-1h6.5c0.6,0,1.2,0.1,1.5,1l6.1,15.1h-15.4l-2.5,6h20.3l7.8,19.2h8l-8-19.2h7.7L252.7,94.3z"/>
	<path class="st0" d="M181.2,75l-5.5-2.9c-2.1-1-3.2-0.9-4.4,0.9l-27.4,39.6c-0.4,0.6-1.1,0.4-1.1-0.3V71.9h-7.2v40.7
		c0,2-0.1,2.9,1.6,3.8l5.4,2.8c2.4,1.3,3.5,0.9,4.9-1.1l27.1-39.3c0.4-0.6,1.1-0.4,1.1,0.3v3.5v36.9h7.2V82.6v-3.8
		C182.9,76.8,182.9,75.9,181.2,75L181.2,75z"/>
	<path class="st0" d="M198.4,139.6h36.8l2.5-6h-36.8L198.4,139.6z M230.7,58.4h36.8l2.5-6h-36.8L230.7,58.4z"/>
	<path class="st0" d="M10.3,164.8c-1.1,0.4-2,0.7-3,0.7c-2.4,0-3.8-0.8-3.8-3.3v-1.9c0-2.2,1-3.8,3.5-3.8c2.4,0,3.5,1.2,3.5,3.4v1.3
		H4.2v0.9c0,2,1.1,2.7,3.1,2.7c0.9,0,1.8-0.3,2.9-0.7L10.3,164.8z M4.2,160.9h5.5v-1c0-1.8-0.9-2.7-2.8-2.7c-1.9,0-2.7,1.1-2.7,3.1
		L4.2,160.9z"/>
	<path class="st0" d="M19.9,156.7v8.1h1l-0.1,3.3h-0.6v-2.7h-7.2l-0.1,2.7h-0.6v-3.3h0.8c1.6-1.7,1.6-5.6,1.6-8.1H19.9z M15.5,157.2
		c0,2.4,0,5.2-1.6,7.5h5.4v-7.5H15.5z"/>
	<path class="st0" d="M24.2,156.7v7.6l5.7-7.6h0.7v8.6h-0.7v-7.6l-5.7,7.6h-0.7v-8.6H24.2z"/>
	<path class="st0" d="M40.2,156.7v8.6h-0.7V161h-5.5v4.4h-0.7v-8.6H34v3.8h5.5v-3.8H40.2z"/>
	<path class="st0" d="M43.3,157.1c0.5-0.1,1.7-0.5,3.2-0.5c2.7,0,2.7,1.4,2.7,3v5.8h-0.7v-0.7c-0.4,0.3-1.4,0.9-2.7,0.9
		c-2.2,0-3.1-1-3.1-2.6c0-1.6,1.4-2.2,3.1-2.2h2.7v-1.6c0-1.5-0.7-2-2.1-2c-1.3,0-2.5,0.4-3.1,0.6L43.3,157.1z M48.6,164.1v-2.9
		h-2.7c-1.7,0-2.4,1-2.4,1.7c0,1.3,0.7,2,2.4,2C46.7,165,48,164.4,48.6,164.1z"/>
	<path class="st0" d="M58.7,156.7v8.6H58v-3.3h-2.4l-2.9,3.3h-1l3.1-3.3c-1.8,0-3-0.5-3-2.6c0-2,1.3-2.7,3.1-2.7L58.7,156.7z
		 M54.9,161.5H58v-4.3h-3.1c-1.7,0-2.4,0.8-2.4,2.2C52.5,160.9,53.2,161.5,54.9,161.5z"/>
	<path class="st0" d="M66.8,165.3h-0.7l0.9-8.6h0.7l3.6,8l3.6-8h0.7l0.9,8.6h-0.7l-0.7-7.5l-3.4,7.5h-0.7l-3.4-7.5L66.8,165.3z"/>
	<path class="st0" d="M85.6,164.8c-1.1,0.4-2,0.7-3,0.7c-2.4,0-3.8-0.8-3.8-3.3v-1.9c0-2.2,1-3.8,3.5-3.8c2.4,0,3.5,1.2,3.5,3.4v1.3
		h-6.3v0.9c0,2,1.1,2.7,3.1,2.7c0.9,0,1.8-0.3,2.9-0.8L85.6,164.8z M79.5,160.9H85v-1c0-1.8-0.9-2.7-2.8-2.7c-1.9,0-2.7,1.1-2.7,3.1
		V160.9z"/>
	<path class="st0" d="M95.2,156.7v8.1h1l-0.1,3.3h-0.6v-2.7h-7.2l-0.1,2.7h-0.6v-3.3h0.8c1.6-1.7,1.6-5.6,1.6-8.1H95.2z M90.8,157.2
		c0,2.4,0,5.2-1.6,7.5h5.4v-7.5H90.8z"/>
	<path class="st0" d="M99.5,156.7v7.6l5.7-7.6h0.7v8.6h-0.7v-7.6l-5.7,7.6h-0.7v-8.6H99.5z"/>
	<path class="st0" d="M109.3,156.7v8.1h5.1v-8.1h0.7v8.1h1l-0.2,3.3h-0.5v-2.7h-6.8v-8.6H109.3z"/>
	<path class="st0" d="M119.3,156.7v7.6l5.7-7.6h0.7v8.6H125v-7.6l-5.7,7.6h-0.7v-8.6H119.3z"/>
	<path class="st0" d="M135.4,156.7v8.6h-0.7V161h-5.5v4.4h-0.7v-8.6h0.7v3.8h5.5v-3.8H135.4z"/>
	<path class="st0" d="M144.6,164.8c-0.9,0.4-1.8,0.7-2.8,0.7c-2.4,0-3.8-1.4-3.8-3.8v-1.4c0-2.4,1.4-3.8,3.8-3.8c1,0,2,0.3,2.8,0.7
		l-0.2,0.6c-0.8-0.3-1.7-0.8-2.7-0.8c-2.1,0-3.1,1.3-3.1,3.3v1.4c0,2,1,3.3,3.1,3.3c0.9,0,1.8-0.4,2.7-0.8L144.6,164.8z"/>
	<path class="st0" d="M147.4,160.7L147.4,160.7l4.8-4h1.1l-5.2,4.1l5.2,4.5h-1l-4.8-4.3h-0.1v4.3h-0.7v-8.6h0.7L147.4,160.7
		L147.4,160.7z"/>
	<path class="st0" d="M155.6,157.1c0.5-0.1,1.7-0.5,3.2-0.5c2.7,0,2.7,1.4,2.7,3v5.8h-0.7v-0.7c-0.4,0.3-1.4,0.9-2.7,0.9
		c-2.2,0-3.1-1-3.1-2.6c0-1.6,1.4-2.2,3.1-2.2h2.7v-1.6c0-1.5-0.7-2-2.1-2c-1.3,0-2.5,0.4-3.1,0.6L155.6,157.1z M160.9,164.1v-2.9
		h-2.7c-1.7,0-2.4,1-2.4,1.7c0,1.3,0.7,2,2.4,2C159.1,165,160.3,164.4,160.9,164.1z"/>
	<path class="st0" d="M171,156.7v8.6h-0.7v-3.3h-2.4l-2.9,3.3h-1l3.1-3.3c-1.8,0-3-0.5-3-2.6c0-2,1.3-2.7,3.1-2.7L171,156.7z
		 M167.3,161.5h3.1v-4.3h-3.1c-1.7,0-2.4,0.8-2.4,2.2C164.9,160.9,165.6,161.5,167.3,161.5z"/>
	<path class="st0" d="M4.5,176.1v7.6l5.7-7.6h0.7v8.6h-0.7v-7.6l-5.7,7.6H3.9v-8.6H4.5z"/>
	<path class="st0" d="M20.6,176.1v8.6h-0.7v-4.4h-5.5v4.4h-0.7v-8.6h0.7v3.8h5.5v-3.8H20.6z"/>
	<path class="st0" d="M29,172.7v3.6c0.3-0.1,0.8-0.4,1.5-0.4c2.6,0,3.7,1.7,3.7,4.3c0,2.7-1,4.6-3.7,4.6c-0.7,0-1.3-0.2-1.5-0.4v3.7
		h-0.7v-3.7c-0.3,0.2-0.7,0.4-1.5,0.4c-2.6,0-3.6-1.9-3.6-4.6c0-2.6,1-4.3,3.6-4.3c0.8,0,1.3,0.3,1.5,0.4v-3.6H29z M28.3,183.9v-7
		c-0.3-0.2-0.8-0.4-1.5-0.4c-2,0-2.9,1.6-2.9,3.8c0,2.7,0.9,4.1,2.9,4.1C27.5,184.3,28,184.1,28.3,183.9z M29,176.9v7
		c0.3,0.2,0.8,0.4,1.5,0.4c2,0,2.9-1.4,2.9-4.1c0-2.2-0.9-3.8-2.9-3.8C29.8,176.5,29.2,176.7,29,176.9z"/>
	<path class="st0" d="M36.5,179.4c0-2.1,1.4-3.5,3.8-3.5s3.8,1.4,3.8,3.5v2c0,2.1-1.4,3.5-3.8,3.5s-3.8-1.4-3.8-3.5V179.4z
		 M37.2,181.4c0,1.7,1.2,2.9,3.1,2.9c1.9,0,3.1-1.2,3.1-2.9v-2c0-1.7-1.2-2.9-3.1-2.9c-1.9,0-3.1,1.2-3.1,2.9V181.4z"/>
	<path class="st0" d="M46.6,188.1v-12h0.7v0.7c0.5-0.3,1.5-0.9,2.7-0.9c2.6,0,3.8,1.7,3.8,4.5c0,2.6-1,4.5-3.8,4.5
		c-1.3,0-2.2-0.5-2.7-0.9v4.1L46.6,188.1L46.6,188.1z M47.3,177.3v6.2c0.6,0.3,1.5,0.9,2.7,0.9c1.4,0,3.1-0.6,3.1-3.9
		c0-3.3-1.6-3.9-3.1-3.9C48.8,176.5,47.9,176.9,47.3,177.3z"/>
	<path class="st0" d="M56.8,184.7h-0.7l0.9-8.6h0.7l3.6,8l3.6-8h0.7l0.9,8.6h-0.7l-0.7-7.5l-3.4,7.5h-0.7l-3.4-7.5L56.8,184.7z"/>
	<path class="st0" d="M69.3,176.5c0.5-0.1,1.7-0.5,3.2-0.5c2.7,0,2.7,1.4,2.7,3v5.8h-0.7V184c-0.4,0.3-1.4,0.9-2.7,0.9
		c-2.2,0-3.1-1-3.1-2.6c0-1.6,1.4-2.2,3.1-2.2h2.7v-1.6c0-1.5-0.7-2-2.1-2c-1.3,0-2.5,0.4-3.1,0.6L69.3,176.5z M74.6,183.5v-2.9
		h-2.7c-1.7,0-2.4,1-2.4,1.7c0,1.3,0.7,2,2.4,2C72.8,184.3,74.1,183.8,74.6,183.5z"/>
	<path class="st0" d="M78.8,176.1v8.1H84v-8.1h0.7v8.1h1l-0.2,3.3H85v-2.7h-6.8v-8.6H78.8z"/>
	<path class="st0" d="M88.8,176.1v7.6l5.7-7.6h0.7v8.6h-0.7v-7.6l-5.7,7.6h-0.7v-8.6H88.8z"/>
	<path class="st0" d="M97.7,179.4c0-2.1,1.4-3.5,3.8-3.5c2.4,0,3.8,1.4,3.8,3.5v2c0,2.1-1.4,3.5-3.8,3.5c-2.4,0-3.8-1.4-3.8-3.5
		V179.4z M98.4,181.4c0,1.7,1.2,2.9,3.1,2.9c1.9,0,3.1-1.2,3.1-2.9v-2c0-1.7-1.2-2.9-3.1-2.9c-1.9,0-3.1,1.2-3.1,2.9V181.4z"/>
	<path class="st0" d="M114.6,176.1v8.6H114v-4.4h-5.5v4.4h-0.7v-8.6h0.7v3.8h5.5v-3.8H114.6z"/>
	<path class="st0" d="M124.4,176.1v8.6h-0.7v-4.4h-5.5v4.4h-0.7v-8.6h0.7v3.8h5.5v-3.8H124.4z"/>
	<path class="st0" d="M126.9,179.4c0-2.1,1.4-3.5,3.8-3.5s3.8,1.4,3.8,3.5v2c0,2.1-1.4,3.5-3.8,3.5s-3.8-1.4-3.8-3.5V179.4z
		 M127.6,181.4c0,1.7,1.2,2.9,3.1,2.9s3.1-1.2,3.1-2.9v-2c0-1.7-1.2-2.9-3.1-2.9c-1.9,0-3.1,1.2-3.1,2.9V181.4z"/>
	<path class="st0" d="M137.1,178.7h5.1v0.7h-5.1V178.7z"/>
	<path class="st0" d="M144.7,176.5c0.5-0.1,1.7-0.5,3.2-0.5c2.7,0,2.7,1.4,2.7,3v5.8H150V184c-0.4,0.3-1.4,0.9-2.7,0.9
		c-2.2,0-3.1-1-3.1-2.6c0-1.6,1.4-2.2,3.1-2.2h2.7v-1.6c0-1.5-0.7-2-2.1-2c-1.3,0-2.5,0.4-3.1,0.6L144.7,176.5z M150,183.5v-2.9
		h-2.7c-1.7,0-2.4,1-2.4,1.7c0,1.3,0.7,2,2.4,2C148.2,184.3,149.4,183.8,150,183.5z"/>
	<path class="st0" d="M160.4,176.1v8.6h-0.7v-4.4h-5.5v4.4h-0.7v-8.6h0.7v3.8h5.5v-3.8H160.4z"/>
	<path class="st0" d="M163.4,176.5c0.5-0.1,1.7-0.5,3.2-0.5c2.7,0,2.7,1.4,2.7,3v5.8h-0.7V184c-0.4,0.3-1.4,0.9-2.7,0.9
		c-2.2,0-3.1-1-3.1-2.6c0-1.6,1.4-2.2,3.1-2.2h2.7v-1.6c0-1.5-0.7-2-2.1-2c-1.3,0-2.5,0.4-3.1,0.6L163.4,176.5z M168.7,183.5v-2.9
		H166c-1.7,0-2.4,1-2.4,1.7c0,1.3,0.7,2,2.4,2C166.9,184.3,168.2,183.8,168.7,183.5z"/>
	<path class="st0" d="M179.3,176.1v8.6h-0.7v-8.1h-3.8c0,3.2-0.1,8.1-2.7,8.1c-0.1,0-0.2,0-0.3-0.1l-0.1-0.7c0.2,0,0.3,0.1,0.4,0.1
		c1.8,0,2.1-4.9,2.1-7.9H179.3z"/>
	<path class="st0" d="M182.8,176.1v7.6l5.7-7.6h0.7v8.6h-0.7v-7.6l-5.7,7.6h-0.7v-8.6H182.8z"/>
	<path class="st0" d="M191.5,176.1h6.9v0.6h-3.1v8h-0.7v-8h-3.1L191.5,176.1L191.5,176.1z"/>
	<path class="st0" d="M201.2,176.1v7.6l5.7-7.6h0.7v8.6h-0.7v-7.6l-5.7,7.6h-0.7v-8.6H201.2z"/>
	<path class="st0" d="M210.8,176.1v2.6c0,1.7,0.5,2.4,2.4,2.4c1,0,2-0.2,2.6-0.3v-4.7h0.7v8.6h-0.7v-3.4c-0.6,0.1-1.6,0.3-2.6,0.3
		c-2.1,0-3.1-0.9-3.1-3.1v-2.4H210.8z"/>
	<path class="st0" d="M225.9,184.2c-1.1,0.4-2,0.7-3,0.7c-2.4,0-3.8-0.8-3.8-3.3v-1.9c0-2.2,1-3.8,3.5-3.8c2.4,0,3.5,1.2,3.5,3.4
		v1.3h-6.3v0.9c0,2,1.1,2.7,3.1,2.7c0.9,0,1.8-0.3,2.9-0.8L225.9,184.2z M219.8,180.2h5.5v-1c0-1.8-0.9-2.7-2.8-2.7
		c-1.9,0-2.7,1.1-2.7,3.1L219.8,180.2z"/>
	<path class="st0" d="M234.9,184.2c-0.9,0.4-1.8,0.7-2.8,0.7c-2.4,0-3.8-1.4-3.8-3.8v-1.4c0-2.4,1.4-3.8,3.8-3.8c1,0,2,0.3,2.8,0.7
		l-0.2,0.6c-0.8-0.3-1.7-0.8-2.7-0.8c-2.1,0-3.1,1.3-3.1,3.3v1.4c0,2,1,3.3,3.1,3.3c0.9,0,1.8-0.4,2.7-0.8L234.9,184.2z"/>
	<path class="st0" d="M237.8,180.1L237.8,180.1l4.8-4h1.1l-5.2,4.1l5.2,4.5h-1l-4.8-4.3h-0.1v4.3h-0.7v-8.6h0.7L237.8,180.1
		L237.8,180.1z"/>
	<path class="st0" d="M246,176.5c0.5-0.1,1.7-0.5,3.2-0.5c2.7,0,2.7,1.4,2.7,3v5.8h-0.7V184c-0.4,0.3-1.4,0.9-2.7,0.9
		c-2.2,0-3.1-1-3.1-2.6c0-1.6,1.4-2.2,3.1-2.2h2.7v-1.6c0-1.5-0.7-2-2.1-2c-1.3,0-2.5,0.4-3.1,0.6L246,176.5z M251.2,183.5v-2.9
		h-2.7c-1.7,0-2.4,1-2.4,1.7c0,1.3,0.7,2,2.4,2C249.4,184.3,250.7,183.8,251.2,183.5z"/>
	<path class="st0" d="M261.4,176.1v8.6h-0.7v-3.3h-2.4l-2.9,3.3h-1l3.1-3.3c-1.8,0-3-0.5-3-2.6c0-2,1.3-2.7,3.1-2.7H261.4z
		 M257.6,180.9h3.1v-4.3h-3.1c-1.7,0-2.4,0.8-2.4,2.2C255.2,180.3,255.9,180.9,257.6,180.9z"/>
	<path class="st0" d="M10.1,203.6c-0.9,0.4-1.8,0.7-2.8,0.7c-2.4,0-3.8-1.4-3.8-3.8v-1.4c0-2.4,1.4-3.8,3.8-3.8c1,0,2,0.3,2.8,0.7
		l-0.2,0.6c-0.8-0.3-1.7-0.8-2.7-0.8c-2.1,0-3.1,1.3-3.1,3.3v1.4c0,2,1,3.3,3.1,3.3c0.9,0,1.8-0.4,2.7-0.8L10.1,203.6z"/>
	<path class="st0" d="M12.9,195.5v7.6l5.7-7.6h0.7v8.6h-0.7v-7.6l-5.7,7.6h-0.7v-8.6H12.9z"/>
	<path class="st0" d="M28.5,203.6c-0.9,0.4-1.8,0.7-2.8,0.7c-2.4,0-3.8-1.4-3.8-3.8v-1.4c0-2.4,1.4-3.8,3.8-3.8c1,0,2,0.3,2.8,0.7
		l-0.2,0.6c-0.8-0.3-1.7-0.8-2.7-0.8c-2.1,0-3.1,1.3-3.1,3.3v1.4c0,2,1,3.3,3.1,3.3c0.9,0,1.8-0.4,2.7-0.8L28.5,203.6z"/>
	<path class="st0" d="M30.2,195.5h6.8v0.6H34v8h-0.7v-8h-3.1L30.2,195.5L30.2,195.5z"/>
	<path class="st0" d="M45.5,203.6c-1.1,0.4-2,0.7-3,0.7c-2.4,0-3.8-0.8-3.8-3.3v-1.9c0-2.2,1-3.8,3.5-3.8c2.4,0,3.5,1.2,3.5,3.4v1.3
		h-6.3v0.9c0,2,1.1,2.7,3.1,2.7c0.9,0,1.8-0.3,2.9-0.8L45.5,203.6z M39.4,199.6H45v-1c0-1.8-0.9-2.7-2.8-2.7c-1.9,0-2.7,1.1-2.7,3.1
		L39.4,199.6z"/>
	<path class="st0" d="M48.7,204.1H48l0.9-8.6h0.7l3.6,8l3.6-8h0.7l0.9,8.6h-0.7l-0.7-7.5l-3.4,7.5h-0.7l-3.4-7.5L48.7,204.1z"/>
	<path class="st0" d="M61.3,195.8c0.5-0.1,1.7-0.5,3.2-0.5c2.7,0,2.7,1.4,2.7,3v5.8h-0.7v-0.7c-0.4,0.3-1.4,0.9-2.7,0.9
		c-2.2,0-3.1-1-3.1-2.6c0-1.6,1.4-2.2,3.1-2.2h2.7v-1.6c0-1.5-0.7-2-2.1-2c-1.3,0-2.5,0.4-3.1,0.6L61.3,195.8z M66.6,202.9V200h-2.7
		c-1.7,0-2.4,1-2.4,1.7c0,1.3,0.7,2,2.4,2C64.7,203.7,66,203.2,66.6,202.9z"/>
</g>
</svg>
