<svg fill="none" height="56" viewBox="0 0 86 56" width="86" xmlns="http://www.w3.org/2000/svg"><g fill="#f5f5f5"><path d="m78.4118 16.9241c1.4941-4.5157 3.889-8.62774 6.9829-12.11318-.223-.14459-.4338-.29221-.6628-.43078-.1295-.08435-.2621-.1687-.3916-.24702-.2169-.13556-.4398-.26811-.6688-.39765-.3072-.17472-.6235-.35246-.9369-.51513-.2891-.15063-.5693-.29523-.8645-.43681-.223-.11146-.4579-.22293-.6929-.32535-.1235-.05121-.241-.11146-.3675-.15665-.2681-.12351-.5362-.23497-.8134-.34041-.2802-.11146-.5633-.21388-.8585-.31932-.0844-.03916-.1718-.0723-.2621-.0964-.235-.07832-.464-.15665-.7019-.22895-.3013-.09941-.6025-.18978-.9158-.27413-.1627-.051215-.3344-.090378-.5031-.138577-.5091-.129537-1.0333-.256061-1.5575-.358485-.1446-.033137-.2801-.060249-.4247-.078324-.2681-.051212-.5423-.099412-.8194-.144599-.3344-.045187-.6688-.099412-1.0152-.129537h-.0121c-.3012-.039162-.6085-.072299-.9158-.0963988-.3133-.0210873-.6356-.0391622-.9549-.0602495-.1296-.0060249-.2561-.0120499-.3916-.0120499-.3194-.01807485-.6417-.0240998-.961-.0240998-.3133 0-.6296.00602495-.949.0180749-.1295 0-.262.0060249-.3856.0120499-.3072.0210873-.6085.0391621-.9097.0602495-.3284.0271127-.6537.0602497-.97.0963997-.3465.033137-.6869.084349-1.0273.129536-.2741.045187-.5513.090374-.8194.144599-.1386.021087-.2741.045187-.4127.078324-.2741.045187-.5513.111462-.8194.168699-.2621.066274-.5242.123511-.7742.195811-.1627.039162-.3284.078324-.485.129537-.3133.08435-.6145.17472-.9158.27413-.235.0723-.4699.15063-.7019.22895-.0904.02712-.1777.06025-.2681.0964-.2892.10544-.5694.20786-.8525.31932-.2742.10544-.5513.22293-.8134.34041-.1295.04519-.25.10544-.3675.15665-.235.10544-.47.2169-.6929.32535-.2892.1446-.5814.28619-.8646.43681-.3223.16267-.6356.33137-.9369.51513-.262.15063-.5121.30125-.7651.46392-.0994.05122-.1958.11147-.2953.18377-.2229.13857-.4398.28618-.6567.43078-.2229.15062-.4458.30125-.6627.46392l-.1235.09038c-.1958.13857-.3856.28618-.5814.43078-.4128.3133-.8134.63864-1.199.97905-.1627.1446-.3344.28619-.4971.44284-.1626.1446-.3343.30124-.491.44886-.1627.15665-.3284.31329-.479.46994-.2109.20786-.4127.41874-.6085.63262-.1958.21389-.3856.41874-.5814.63262l-.006-.00602c-.2019.22895-.4007.46392-.5814.69291-.3344.4097-.6628.8284-.9821 1.2531-.0723.0904-.1386.1898-.2018.2862-.0452.0603-.0844.1175-.1296.1748-.235.3404-.4639.6778-.6868 1.0242-.0452.0663-.0783.1235-.1175.1898-.0723.1114-.1506.2289-.2229.3464l-.0784.1326-.0271.0391c-.2741.47-.5573.9459-.8043 1.437-.0904.1837-.1838.3645-.2741.5483-.0934.1837-.1838.3705-.2742.5542-.0783.1627-.1506.3314-.2229.5031l-.0452.0844c-.1566.3735-.3133.7501-.4579 1.1297-.0602.1446-.1114.2861-.1627.4368l-.0602.1506c-.1386.3856-.2741.7712-.3916 1.1688v.0121c-.0904.3012-.1838.5995-.2681.9007-.0784.3013-.1567.5995-.229.9068v.012c-.0452.1838-.0843.3645-.1235.5483-.0512.2139-.0904.4368-.1386.6597-.3133 1.6719-.485 3.4011-.485 5.1694v.0061c0 4.3861-2.0424 8.2903-5.2387 10.8298-2.3828 1.9069-5.4104 3.0426-8.703 3.0426-7.6939 0-13.9357-6.2057-13.9357-13.8694 0-7.6698 6.2418-13.8755 13.9357-13.8755 3.2926 0 6.3202 1.1357 8.703 3.0426 1.4942-4.5157 3.8952-8.62773 6.989-12.11316-4.4766-3.03959-9.8749-4.81394-15.695-4.81394-15.4058 0-27.8805 12.4265-27.8805 27.76 0 15.3244 12.4747 27.7449 27.8805 27.7449 5.8231 0 11.2184-1.7684 15.692-4.8049 1.931-1.3105 3.6812-2.8468 5.2206-4.5941l.006-.006v-.006c4.335-4.8893 6.9679-11.3058 6.9679-18.3339v-.0061c0-.262.006-.5151.0271-.7772.012-.2289.0331-.4579.0512-.6718.012-.1566.0331-.3072.0602-.4579.0121-.1174.0332-.2349.0452-.3524.0181-.1115.0392-.2229.0663-.3254.0271-.1506.0512-.3072.0934-.4518.012-.0784.0331-.1567.0512-.235.0452-.1898.0904-.3705.1506-.5543.0121-.0603.0332-.1235.0512-.1838.0271-.1114.0663-.2169.0994-.3193.0513-.1446.0995-.2952.1567-.4368.2681-.7501.6085-1.461 1.0092-2.1479.0723-.1356.1566-.2802.25-.4187.0512-.0844.1054-.1747.1777-.2681.0723-.1235.1567-.2471.2501-.3706l.1175-.1626c.1385-.1898.2741-.3706.4247-.5483.1567-.2019.3224-.3916.4971-.5814.3344-.3856.7019-.7441 1.0815-1.0755.1897-.1687.3856-.3344.5814-.488.1506-.1175.3012-.235.4579-.3525.4458-.3253.9097-.6266 1.4008-.9067.3795-.2139.7742-.4097 1.1778-.5874.1386-.0663.2832-.1236.4308-.1838.6236-.2531 1.2773-.4639 1.9461-.6206.1446-.0391.2801-.0723.4247-.0994.1838-.0452.3676-.0783.5574-.1054.0994-.0211.1958-.0332.3012-.0512.1506-.0211.3013-.0392.4579-.0512.2802-.0332.5633-.0603.8435-.0723.235-.0061.4639-.0121.6929-.0121.2349 0 .4729.006.6958.0121.2953.012.5754.0391.8526.0723.1566.018.3073.0331.4579.0602.0994.006.1837.0211.2681.0392.1898.0271.3735.0662.5573.1054.1687.0271.3344.0663.491.1115.6628.1566 1.3044.3645 1.919.6145.1506.0603.2892.1175.4308.1838.4066.1837.7983.3795 1.1839.5934.485.2742.9549.5754 1.3947.9008.1597.0994.3103.2169.461.3464z"/><path d="m53.9986 50.6458h-.006v.006c.2169.1506.4338.2922.6537.4368.0994.0573.1958.1235.2952.1838.2561.1566.5031.3133.7652.4579.1506.0904.3073.1837.4639.2681.1507.0843.3133.1627.473.247.2802.1506.5754.2922.8646.4368.2229.1115.4579.2169.6959.3194.1174.0602.241.1114.3675.1686.1295.0513.2621.1175.4006.1627.0784.0392.1567.0663.241.0994.0512.0271.1115.0512.1717.0723.0603.0271.1175.0512.1778.0723.0783.0271.1717.0603.25.0904l.1386.0512.1446.0603.1446.0452c.0904.0391.1777.0662.2681.0994.2289.0783.4639.1566.7019.2289.3013.0964.6025.1898.9158.2742.1566.0451.3193.0903.485.1295.25.0723.5121.1295.7742.1958.2681.0602.5423.1175.8194.1687.1386.0331.2741.0512.4127.0783.2681.0512.5423.0994.8194.1446.3404.0452.6808.0964 1.0273.1296.3133.0391.6416.0723.97.0903.3012.0271.6025.0452.9098.0663.1235.006.256.0121.3855.0121.3224.006.6357.012.949.012.3223 0 .6416-.006.9549-.012.1386 0 .2621-.0061.3917-.0121.3223-.0181.6416-.0392.9549-.0663.3073-.0211.6146-.0512.9158-.0903h.0121c.3464-.0332.6808-.0844 1.0152-.1296.2741-.0452.5512-.0904.8193-.1446.1446-.0271.2802-.0452.4248-.0783.5242-.1054 1.0484-.2229 1.5575-.3585.1687-.0452.3404-.0904.503-.1355.3133-.0844.6146-.1778.9158-.2742.235-.0723.464-.1506.7019-.2289.0904-.0332.1778-.0573.2621-.0994l.1507-.0452.1445-.0603.1386-.0512c.0784-.0331.1627-.0663.2501-.0904.0602-.018.1174-.0452.1777-.0723.1386-.0512.2681-.1114.4067-.1626s.2681-.1175.4067-.1687c.1235-.0573.241-.1055.3675-.1687.235-.1055.4699-.2079.6929-.3194.2892-.1355.5753-.2801.8645-.4368.3133-.1626.6296-.3404.9369-.5211.229-.1235.4519-.2561.6688-.3916.1295-.0844.2621-.1627.3916-.2471.229-.1446.4398-.2862.6628-.4368-3.0908-3.4794-5.4888-7.5914-6.98-12.1071-.1506.1295-.3012.247-.4578.3524-.1959.1446-.4067.2862-.6146.4188-.1506.1054-.3073.2018-.4639.2862-.479.2952-.9821.5603-1.5002.7832-.1446.0723-.2802.1295-.4308.1838-.1506.0662-.3073.1235-.4639.1837-.1175.0392-.241.0844-.3615.1175-.0904.0392-.1778.0663-.2681.0904l-.1175.0331c-.1446.0512-.2953.0904-.4399.1296h-.012c-.1838.0451-.3675.0964-.5633.1295l-.0211.006-.1627.0392-.1175.0271-.1235.0271-.1175.0121c-.1566.0331-.3012.0572-.4639.0783-.1446.0181-.3012.0391-.4579.0572-.2741.0332-.5573.0512-.8525.0663-.223.012-.4579.0211-.6929.0211-.2289 0-.4579-.006-.6959-.0211-.2801-.0121-.5633-.0331-.8435-.0663-.1566-.012-.3072-.0391-.4579-.0512-.1054-.0211-.2018-.0331-.3012-.0512-.0723-.0121-.1446-.0271-.2169-.0452-.1175-.012-.229-.0331-.3404-.0572l-.1175-.0271-.0181-.0061c-.0994-.012-.1898-.0391-.2892-.0662-.1627-.0392-.3344-.0784-.497-.1296-.1175-.0271-.241-.0663-.3525-.1054-.3796-.1055-.7411-.241-1.0935-.3916-.1507-.0513-.2953-.1115-.4308-.1838-.4127-.1747-.8134-.3796-1.205-.5995-.1446-.0783-.2832-.1627-.4248-.247-.0994-.0603-.2018-.1235-.3012-.1898-.0994-.0602-.1958-.1295-.2952-.1958-.1235-.0783-.241-.1627-.3525-.253-.1566-.1175-.3073-.229-.4579-.3525-1.5062 4.5127-3.9102 8.6187-6.995 12.0981z"/></g></svg>