<svg fill="none" height="255" viewBox="0 0 434 255" width="434" xmlns="http://www.w3.org/2000/svg" xmlns:xlink="http://www.w3.org/1999/xlink"><filter id="a" color-interpolation-filters="sRGB" filterUnits="userSpaceOnUse" height="253.439" width="433.175" x=".824585" y=".780273"><feFlood flood-opacity="0" result="BackgroundImageFix"/><feColorMatrix in="SourceAlpha" type="matrix" values="0 0 0 0 0 0 0 0 0 0 0 0 0 0 0 0 0 0 127 0"/><feOffset dy="25"/><feGaussianBlur stdDeviation="32"/><feColorMatrix type="matrix" values="0 0 0 0 0.591667 0 0 0 0 0.311414 0 0 0 0 0.108472 0 0 0 0.1 0"/><feBlend in2="BackgroundImageFix" mode="normal" result="effect1_dropShadow"/><feBlend in="SourceGraphic" in2="effect1_dropShadow" mode="normal" result="shape"/></filter><g fill="#fff" filter="url(#a)"><path d="m102.405 106.626-4.649 1.691c-.6398.232-.9706.946-.7387 1.586l1.6908 4.649c.2318.639.9458.97 1.5859.738l4.649-1.69c.639-.232.97-.946.738-1.586l-1.69-4.649c-.232-.64-.946-.971-1.586-.739z"/><path d="m93.1103 110.008-4.6489 1.691c-.6398.232-.9706.946-.7387 1.586l1.6907 4.649c.2319.639.9459.97 1.5857.738l4.6489-1.69c.6398-.232.9706-.946.7388-1.586l-1.6908-4.649c-.2318-.637-.9459-.971-1.5857-.739z"/><path d="m105.79 115.921-4.649 1.691c-.64.232-.971.946-.739 1.586l1.691 4.649c.232.639.946.97 1.585.738l4.649-1.69c.64-.232.971-.946.739-1.586l-1.691-4.649c-.235-.64-.946-.971-1.585-.739z"/><path d="m109.171 125.216-4.649 1.69c-.64.232-.97.946-.739 1.586l1.691 4.649c.232.64.946.971 1.586.739l4.649-1.691c.64-.232.97-.946.739-1.586l-1.691-4.649c-.232-.639-.946-.97-1.586-.738z"/><path d="m112.556 134.51-4.649 1.691c-.64.232-.971.946-.739 1.586l1.691 4.648c.232.64.946.971 1.586.739l4.648-1.691c.64-.231.971-.945.739-1.585l-1.691-4.649c-.235-.64-.945-.971-1.585-.739z"/><path d="m121.851 131.125-4.649 1.694c-.64.232-.971.946-.739 1.586l1.691 4.649c.232.64.946.97 1.585.739l4.649-1.691c.64-.232.971-.946.739-1.586l-1.691-4.649c-.235-.64-.946-.973-1.585-.742z"/><path d="m99.8764 128.597-4.6489 1.691c-.6398.232-.9706.946-.7387 1.586l1.6908 4.648c.2318.64.9458.971 1.5856.739l4.6488-1.691c.64-.231.971-.945.739-1.585l-1.691-4.649c-.232-.637-.946-.971-1.5856-.739z"/><path d="m103.261 137.892-4.6488 1.691c-.6398.232-.9706.946-.7387 1.586l1.6908 4.648c.2318.64.9457.971 1.5857.739l4.649-1.691c.64-.231.97-.945.739-1.585l-1.691-4.649c-.235-.637-.946-.971-1.586-.739z"/><path d="m110.027 156.481-4.649 1.691c-.639.232-.97.946-.738 1.585l1.69 4.649c.232.64.946.971 1.586.739l4.649-1.691c.64-.232.971-.946.739-1.585l-1.691-4.649c-.235-.637-.946-.971-1.586-.739z"/><path d="m115.937 143.805-4.648 1.691c-.64.232-.971.946-.739 1.585l1.691 4.649c.231.64.945.971 1.585.739l4.649-1.691c.64-.232.971-.946.739-1.585l-1.691-4.649c-.232-.64-.946-.971-1.586-.739z"/><path d="m97.348 150.571-4.6489 1.691c-.6399.232-.9706.946-.7388 1.586l1.6908 4.648c.2318.64.9459.971 1.5857.739l4.6489-1.691c.6403-.231.9703-.945.7383-1.585l-1.6904-4.649c-.2318-.64-.9458-.971-1.5856-.739z"/><path d="m80.434 104.098-4.6489 1.691c-.6398.232-.9705.946-.7387 1.585l1.6908 4.649c.2318.64.9458.971 1.5857.739l4.6488-1.691c.6399-.232.9706-.946.7388-1.585l-1.6908-4.649c-.2349-.64-.9458-.971-1.5857-.739z"/><path d="m83.8156 113.393-4.6489 1.691c-.6399.231-.9706.946-.7388 1.585l1.6908 4.649c.2318.64.9459.971 1.5857.739l4.6489-1.691c.6398-.232.9705-.946.7387-1.585l-1.6908-4.649c-.2318-.64-.9458-.971-1.5856-.739z"/><path d="m87.2002 122.687-4.6489 1.691c-.6398.232-.9706.946-.7387 1.586l1.6907 4.649c.2319.64.9459.97 1.5857.738l4.6489-1.69c.6399-.232.9706-.946.7388-1.586l-1.6908-4.649c-.2349-.64-.9459-.971-1.5857-.739z"/><path d="m76.1963 63.5341-4.6488 1.6908c-.6399.2319-.9706.9459-.7388 1.5857l1.6908 4.6489c.2318.6398.9458.9706 1.5857.7387l4.6489-1.6907c.6398-.2319.9705-.9459.7387-1.5857l-1.6908-4.6489c-.2318-.6368-.9458-.9706-1.5857-.7388z"/><path d="m70.2863 76.2139-4.6489 1.6908c-.6399.2318-.9706.9459-.7388 1.5857l1.6908 4.6489c.2318.6398.9459.9706 1.5857.7387l4.6489-1.6907c.6398-.2319.9706-.9459.7387-1.5857l-1.6908-4.6489c-.2349-.6398-.9489-.9737-1.5856-.7388z"/><path d="m82.9625 82.1235-4.6489 1.6908c-.6398.2318-.9705.9458-.7387 1.5857l1.6908 4.6489c.2318.6398.9458.9705 1.5857.7387l4.6488-1.6908c.6399-.2318.9706-.9458.7388-1.5857l-1.6908-4.6488c-.2318-.6368-.9458-.9706-1.5857-.7388z"/><path d="m92.2572 78.742-4.6489 1.6908c-.6398.2318-.9706.9458-.7387 1.5857l1.6908 4.6489c.2318.6398.9458.9705 1.5856.7387l4.6489-1.6908c.6399-.2318.9706-.9458.7388-1.5857l-1.6908-4.6488c-.2318-.6399-.9459-.9706-1.5857-.7388z"/><path d="m86.3472 91.4179-4.6489 1.6908c-.6399.2318-.9706.9459-.7388 1.5857l1.6908 4.6489c.2318.6398.9459.9707 1.5857.7387l4.6489-1.6907c.6398-.2319.9706-.9459.7387-1.5857l-1.6907-4.6489c-.235-.6368-.949-.9706-1.5857-.7388z"/><path d="m95.6418 88.0364-4.6488 1.6908c-.6399.2318-.9706.9459-.7388 1.5857l1.6908 4.6489c.2318.6398.9458.9706 1.5857.7387l4.6489-1.6907c.6398-.2319.9705-.9459.7387-1.5857l-1.6908-4.6489c-.2349-.6398-.9489-.9706-1.5857-.7388z"/><path d="m88.8756 69.4471-4.6489 1.6908c-.6398.2318-.9705.9458-.7387 1.5857l1.6908 4.6488c.2318.6399.9458.9706 1.5856.7388l4.6489-1.6908c.6399-.2318.9706-.9458.7388-1.5857l-1.6908-4.6489c-.2349-.6398-.9489-.9705-1.5857-.7387z"/><path d="m101.552 75.3574-4.649 1.6908c-.6398.2318-.9706.9458-.7388 1.5857l1.6908 4.6488c.2319.6399.9459.9706 1.5857.7388l4.6493-1.6908c.639-.2318.97-.9458.738-1.5857l-1.69-4.6489c-.232-.6367-.946-.9705-1.586-.7387z"/><path d="m107.465 62.6815-4.649 1.6907c-.64.2319-.97.9459-.739 1.5857l1.691 4.6489c.232.6399.946.9706 1.586.7388l4.649-1.6908c.64-.2318.97-.9459.738-1.5857l-1.69-4.6489c-.235-.6398-.949-.9706-1.586-.7387z"/><path d="m110.846 71.9759-4.648 1.6908c-.64.2318-.971.9458-.739 1.5857l1.691 4.6488c.231.6399.945.9706 1.585.7388l4.649-1.6908c.64-.2318.971-.9458.739-1.5857l-1.691-4.6489c-.232-.6398-.946-.9705-1.586-.7387z"/><path d="m120.141 68.5908-4.649 1.6908c-.639.2318-.97.9458-.738 1.5857l1.69 4.6488c.232.6399.946.9706 1.586.7388l4.649-1.6908c.64-.2318.971-.9458.739-1.5857l-1.691-4.6489c-.232-.6367-.946-.9705-1.586-.7387z"/><path d="m116.76 59.2964-4.649 1.6907c-.64.2319-.971.9459-.739 1.5857l1.691 4.6489c.232.6398.946.9706 1.585.7388l4.649-1.6908c.64-.2319.971-.9459.739-1.5857l-1.691-4.6489c-.235-.6367-.949-.9706-1.585-.7387z"/><path d="m113.375 50.0014-4.649 1.6908c-.64.2318-.97.9459-.739 1.5857l1.691 4.6489c.232.6398.946.9706 1.586.7387l4.649-1.6907c.64-.2319.97-.9459.738-1.5857l-1.69-4.6489c-.232-.6368-.946-.9706-1.586-.7388z"/><path d="m122.67 46.6204-4.649 1.6908c-.64.2318-.971.9459-.739 1.5857l1.691 4.6489c.232.6398.946.9706 1.585.7387l4.649-1.6908c.64-.2318.971-.9458.739-1.5856l-1.691-4.6489c-.232-.6399-.946-.9706-1.585-.7388z"/><path d="m129.436 65.2098-4.646 1.6908c-.64.2318-.97.9458-.739 1.5857l1.691 4.6488c.232.6399.946.9706 1.586.7388l4.649-1.6908c.64-.2318.97-.9459.738-1.5857l-1.69-4.6489c-.235-.6398-.949-.9705-1.589-.7387z"/><path d="m117.613 90.5648-4.649 1.6907c-.64.2319-.971.9459-.739 1.5857l1.691 4.6489c.232.6398.946.9706 1.586.7388l4.648-1.6908c.64-.2318.971-.9459.739-1.5857l-1.691-4.6489c-.234-.6398-.945-.9706-1.585-.7387z"/><path d="m126.907 87.1806-4.648 1.6908c-.64.2318-.971.9459-.739 1.5857l1.691 4.6489c.231.6398.945.9706 1.585.7387l4.649-1.6907c.64-.2319.971-.9459.739-1.5857l-1.691-4.6489c-.232-.6368-.946-.9706-1.586-.7388z"/><path d="m120.997 99.8597-4.648 1.6903c-.64.232-.971.946-.739 1.586l1.691 4.649c.231.64.945.971 1.585.739l4.649-1.691c.64-.232.971-.946.739-1.586l-1.691-4.649c-.235-.6394-.949-.9701-1.586-.7383z"/><path d="m130.292 96.4751-4.649 1.6907c-.64.2319-.97.9459-.739 1.5857l1.691 4.6485c.232.64.946.971 1.586.739l4.649-1.691c.64-.231.97-.945.739-1.585l-1.691-4.6492c-.235-.6367-.949-.9706-1.586-.7387z"/><path d="m124.379 109.155-4.649 1.69c-.64.232-.97.946-.739 1.586l1.691 4.649c.232.64.946.971 1.586.739l4.649-1.691c.64-.232.97-.946.738-1.586l-1.69-4.649c-.235-.639-.946-.97-1.586-.738z"/><path d="m99.0235 97.3314-4.6489 1.6907c-.6398.2319-.9706.9459-.7387 1.5859l1.6907 4.649c.2319.64.9459.97 1.5857.738l4.6487-1.69c.64-.232.971-.946.739-1.586l-1.691-4.6489c-.235-.6398-.9457-.9706-1.5855-.7387z"/><path d="m135.349 52.5302-4.649 1.6908c-.64.2318-.971.9459-.739 1.5857l1.691 4.6489c.232.6398.946.9706 1.586.7387l4.649-1.6907c.639-.2319.97-.9459.738-1.5857l-1.69-4.6489c-.235-.6368-.949-.9706-1.586-.7388z"/><path d="m143.512 133.657-4.649 1.691c-.639.231-.97.945-.738 1.585l1.69 4.649c.232.64.946.971 1.586.739l4.649-1.691c.64-.232.971-.946.739-1.586l-1.691-4.648c-.232-.64-.946-.974-1.586-.739z"/><path d="m146.897 142.952-4.649 1.691c-.64.231-.97.945-.739 1.585l1.691 4.649c.232.64.946.971 1.586.739l4.649-1.691c.64-.232.97-.946.738-1.586l-1.69-4.649c-.235-.639-.946-.973-1.586-.738z"/><path d="m149.425 120.978-4.648 1.691c-.64.231-.971.945-.739 1.585l1.691 4.649c.231.64.945.971 1.585.739l4.649-1.691c.64-.232.971-.946.739-1.586l-1.691-4.648c-.235-.64-.946-.971-1.586-.739z"/><path d="m167.162 82.9459-4.649 1.6908c-.64.2318-.971.9458-.739 1.5856l1.691 4.6489c.232.6399.946.9706 1.585.7388l4.649-1.6908c.64-.2318.971-.9458.739-1.5857l-1.691-4.6489c-.235-.6398-.949-.9736-1.585-.7387z"/><path d="m176.456 79.561-4.649 1.6908c-.639.2318-.97.9458-.738 1.5857l1.69 4.6489c.232.6398.946.9705 1.586.7387l4.649-1.6908c.64-.2318.971-.9458.739-1.5857l-1.691-4.6488c-.235-.6368-.949-.9706-1.586-.7388z"/><path d="m186.604 107.445-4.649 1.691c-.64.232-.97.946-.739 1.586l1.691 4.649c.232.639.946.97 1.586.738l4.649-1.69c.64-.232.97-.946.739-1.586l-1.691-4.649c-.235-.637-.946-.971-1.586-.739z"/><path d="m193.37 126.035-4.649 1.69c-.639.232-.97.946-.738 1.586l1.69 4.649c.232.64.946.971 1.586.739l4.649-1.691c.64-.232.971-.946.739-1.586l-1.691-4.649c-.235-.636-.946-.97-1.586-.738z"/><path d="m180.691 120.125-4.649 1.69c-.64.232-.97.946-.739 1.586l1.691 4.649c.232.64.946.971 1.586.739l4.649-1.691c.64-.232.97-.946.739-1.586l-1.691-4.649c-.232-.639-.946-.973-1.586-.738z"/><path d="m162.102 126.891-4.649 1.69c-.64.232-.971.946-.739 1.586l1.691 4.649c.232.64.946.971 1.585.739l4.649-1.691c.64-.232.971-.946.739-1.586l-1.691-4.649c-.232-.639-.946-.973-1.585-.738z"/><path d="m155.335 108.301-4.648 1.691c-.64.232-.971.946-.739 1.586l1.691 4.649c.231.64.945.97 1.585.738l4.649-1.69c.64-.232.971-.946.739-1.586l-1.691-4.649c-.232-.64-.946-.974-1.586-.739z"/><path d="m164.633 104.917-4.649 1.691c-.64.231-.97.945-.738 1.585l1.69 4.649c.232.64.946.971 1.586.739l4.649-1.691c.64-.232.97-.946.739-1.586l-1.691-4.648c-.235-.64-.949-.971-1.586-.739z"/><path d="m173.928 101.535-4.649 1.691c-.64.232-.971.946-.739 1.586l1.691 4.649c.232.639.946.97 1.586.738l4.649-1.69c.639-.232.97-.946.738-1.586l-1.691-4.649c-.234-.64-.948-.974-1.585-.739z"/><path d="m161.248 95.6219-4.648 1.6908c-.64.2318-.971.9458-.739 1.5857l1.694 4.6486c.232.64.946.971 1.585.739l4.649-1.691c.64-.232.971-.946.739-1.585l-1.691-4.6494c-.238-.6398-.949-.9705-1.589-.7387z"/><path d="m170.543 92.2403-4.649 1.6908c-.64.2318-.97.9458-.738 1.5857l1.69 4.6492c.232.64.946.97 1.586.738l4.649-1.6904c.64-.2318.971-.9458.739-1.5857l-1.691-4.6488c-.235-.6399-.946-.9737-1.586-.7388z"/><path d="m158.72 117.596-4.649 1.691c-.64.232-.97.946-.739 1.586l1.691 4.649c.232.639.946.97 1.586.738l4.649-1.69c.64-.232.97-.946.739-1.586l-1.691-4.649c-.235-.64-.946-.974-1.586-.739z"/><path d="m168.015 114.211-4.649 1.691c-.64.232-.971.946-.739 1.586l1.691 4.649c.232.639.946.97 1.586.738l4.648-1.69c.64-.232.971-.946.739-1.586l-1.691-4.649c-.235-.64-.945-.971-1.585-.739z"/><path d="m177.309 110.83-4.648 1.69c-.64.232-.971.946-.739 1.586l1.691 4.649c.231.64.945.971 1.585.739l4.649-1.691c.64-.232.971-.946.739-1.586l-1.691-4.649c-.235-.639-.946-.973-1.586-.738z"/><path d="m173.072 70.2664-4.649 1.6908c-.64.2318-.971.9459-.739 1.5857l1.691 4.6489c.232.6398.946.9706 1.585.7387l4.649-1.6908c.64-.2318.971-.9458.739-1.5856l-1.691-4.6489c-.231-.6399-.945-.9706-1.585-.7388z"/><path d="m136.202 83.7991-4.649 1.6908c-.64.2318-.97.9459-.739 1.5857l1.691 4.6489c.232.6398.946.9706 1.586.7387l4.649-1.6907c.64-.2319.97-.9459.738-1.5857l-1.69-4.6489c-.232-.6399-.946-.9706-1.586-.7388z"/><path d="m139.587 93.0941-4.649 1.6907c-.64.2319-.971.9459-.739 1.5857l1.691 4.6485c.232.64.946.971 1.586.739l4.648-1.691c.64-.2315.971-.9455.739-1.5853l-1.691-4.6489c-.235-.6398-.949-.9706-1.585-.7387z"/><path d="m133.674 105.774-4.649 1.69c-.64.232-.971.946-.739 1.586l1.691 4.649c.232.64.946.97 1.585.739l4.649-1.691c.64-.232.971-.946.739-1.586l-1.691-4.649c-.235-.64-.946-.973-1.585-.738z"/><path d="m142.968 102.388-4.649 1.691c-.639.232-.97.946-.738 1.586l1.69 4.649c.232.64.946.97 1.586.739l4.649-1.691c.64-.232.971-.946.739-1.586l-1.691-4.649c-.235-.64-.946-.97-1.586-.739z"/><path d="m131.145 127.744-4.649 1.691c-.64.232-.97.946-.738 1.585l1.69 4.649c.232.64.946.971 1.586.739l4.649-1.691c.64-.232.97-.946.739-1.585l-1.691-4.649c-.235-.64-.946-.971-1.586-.739z"/><path d="m140.44 124.362-4.649 1.691c-.64.232-.971.946-.739 1.586l1.691 4.649c.232.64.946.97 1.586.738l4.648-1.69c.64-.232.971-.946.739-1.586l-1.691-4.649c-.234-.64-.945-.974-1.585-.739z"/><path d="m125.232 140.42-4.649 1.691c-.64.232-.97.946-.739 1.586l1.691 4.649c.232.64.946.97 1.586.738l4.649-1.69c.64-.232.97-.946.739-1.586l-1.691-4.649c-.232-.637-.946-.97-1.586-.739z"/><path d="m134.527 137.038-4.649 1.691c-.64.232-.971.946-.739 1.586l1.691 4.649c.232.64.946.97 1.586.738l4.648-1.69c.64-.232.971-.946.739-1.586l-1.691-4.649c-.231-.64-.945-.97-1.585-.739z"/><path d="m138.73 61.8282-4.648 1.6908c-.64.2318-.971.9458-.739 1.5857l1.691 4.6489c.231.6398.945.9705 1.585.7387l4.649-1.6908c.64-.2318.971-.9458.739-1.5857l-1.691-4.6488c-.232-.6399-.946-.9737-1.586-.7388z"/><path d="m141.259 39.8543-4.649 1.6908c-.64.2318-.971.9458-.739 1.5857l1.691 4.6489c.232.6398.946.9705 1.586.7387l4.649-1.6908c.639-.2318.97-.9458.738-1.5857l-1.69-4.6488c-.232-.6399-.946-.9706-1.586-.7388z"/><path d="m144.644 49.1487-4.649 1.6908c-.64.2319-.971.9459-.739 1.5857l1.691 4.6489c.232.6398.946.9706 1.585.7387l4.649-1.6907c.64-.2319.971-.9459.739-1.5857l-1.691-4.6489c-.235-.6398-.949-.9706-1.585-.7388z"/><path d="m148.025 58.4437-4.649 1.6907c-.64.2319-.97.9459-.738 1.5857l1.69 4.6489c.232.6399.946.9706 1.586.7388l4.649-1.6908c.64-.2318.97-.9459.739-1.5857l-1.691-4.6489c-.232-.6398-.946-.9706-1.586-.7387z"/><path d="m142.115 71.1226-4.649 1.6908c-.64.2318-.97.9459-.739 1.5857l1.691 4.6489c.232.6398.946.9706 1.586.7387l4.649-1.6907c.64-.2319.97-.9459.739-1.5857l-1.691-4.6489c-.235-.6399-.949-.9737-1.586-.7388z"/><path d="m151.41 67.7381-4.649 1.6908c-.64.2318-.971.9458-.739 1.5857l1.691 4.6489c.232.6398.946.9705 1.586.7387l4.649-1.6908c.639-.2318.97-.9458.738-1.5857l-1.69-4.6488c-.235-.6399-.949-.9706-1.586-.7388z"/><path d="m154.791 77.033-4.649 1.6908c-.639.2318-.97.9459-.738 1.5857l1.691 4.6489c.231.6398.945.9706 1.585.7387l4.649-1.6908c.64-.2318.971-.9458.739-1.5856l-1.691-4.6489c-.232-.6399-.946-.9706-1.586-.7388z"/><path d="m158.176 86.3275-4.649 1.6907c-.64.2319-.97.9459-.739 1.5857l1.691 4.6489c.232.6398.946.9706 1.586.7388l4.649-1.6908c.64-.2319.97-.9459.738-1.5857l-1.69-4.6489c-.235-.6398-.949-.9706-1.586-.7387z"/><path d="m166.614 51.6771-4.648 1.6907c-.64.2319-.971.9459-.739 1.5857l1.691 4.6489c.231.6399.946.9706 1.585.7388l4.649-1.6908c.64-.2318.971-.9459.739-1.5857l-1.691-4.6489c-.232-.6398-.946-.9706-1.586-.7387z"/><path d="m153.938 45.7677-4.649 1.6908c-.639.2318-.97.9458-.738 1.5857l1.69 4.6457c.232.6399.946.9706 1.586.7388l4.649-1.6908c.64-.2318.971-.9458.739-1.5857l-1.691-4.6489c-.235-.6367-.949-.9705-1.586-.7356z"/><path clip-rule="evenodd" d="m225.674 57.5352h-2.472c-.683 0-1.237.5532-1.237 1.2364v4.9456c0 .4574.309.7078.622 1.0726.312.3183.683.1823 1.233-.4544.686-.6862 1.793-1.7928 2.479-2.479.368-.3678.615-.6151.615-1.2333s0-1.8546 0-1.8546c-.003-.6801-.556-1.2333-1.24-1.2333zm-.615 12.9791c-.686.6862-1.789 1.7897-2.476 2.4759-.367.3678-.618.6182-.618 1.2364v21.6371c0 .6831.554 1.2364 1.237 1.2364h2.472c.684 0 1.237-.5533 1.237-1.2364v-24.7281c0-.374-.167-.7109-.43-.9366-.541-.544-.884-.2225-1.422.3153zm24.107-12.9791c.025.003.053.003 0 .003v-.003c-.025 0-.052 0 0 0 0 0-9.891 0-10.509 0s-.841.2225-1.178.5594c-1.035 1.0355-2.995 3.1498-2.995 3.1498-.464.6182.399 1.2364 1.082 1.2364h13.6c8.194 0 14.837 6.6426 14.837 14.8368 0 8.1943-6.643 14.8369-14.837 14.8369h-9.891v-21.0189c0-.6831-.553-1.2364-1.236-1.2364h-2.473c-.683 0-1.237.5533-1.237 1.2364v24.7281c0 .6831.554 1.2364 1.237 1.2364h13.6c-.052 0-.025 0 0 0v-.0031c.053 0 .025.0031 0 .0031 10.927 0 19.783-8.8558 19.783-19.7825s-8.856-19.7824-19.783-19.7824zm55.592 0s-1.44 0-2.562 0c-1.292 0-1.475.6182-1.731 1.224-1.756 4.9023-8.933 23.2166-11.737 31.0461-2.804-7.8295-9.981-26.1438-11.737-31.0461-.253-.6058-.438-1.224-1.731-1.224-1.118 0-2.562 0-2.562 0-.708 0-1.283.5532-1.283 1.2364l13.459 37.0921c.259.6893.642 1.2364 1.282 1.2364h5.138c.642 0 1.023-.5471 1.282-1.2364l13.459-37.0921c.006-.6832-.569-1.2364-1.277-1.2364zm26.011 0h-18.546c-.683 0-1.237.5532-1.237 1.2364v37.0921c0 .6831.554 1.2364 1.237 1.2364h2.473c.683 0 1.236-.5533 1.236-1.2364v-8.6548h14.837c8.194 0 14.837-6.6426 14.837-14.8369s-6.643-14.8368-14.837-14.8368zm0 24.728h-14.837v-19.7824h14.837c5.462 0 9.891 4.4294 9.891 9.8912s-4.426 9.8912-9.891 9.8912z" fill-rule="evenodd"/><path d="m224.299 114.583h-.77v11.031h.77zm6.602 2.67c-1.363 0-2.312.427-2.843 1.283h-.047l-.142-1.125h-.634v8.203h.748v-4.528c0-1.113.229-1.916.684-2.411.454-.494 1.174-.742 2.154-.742.73 0 1.267.189 1.614.563.346.374.519.973.519 1.799v5.319h.739v-5.366c0-1.996-.931-2.995-2.792-2.995zm5.478 6.105c0 .831.173 1.44.516 1.827.343.386.878.581 1.604.581.473 0 .89-.062 1.252-.182v-.603c-.352.08-.764.12-1.236.12-.473 0-.82-.151-1.042-.451-.223-.303-.331-.767-.331-1.397v-5.193h2.408v-.649h-2.408v-1.985h-.386l-.377 1.858-1.215.34v.439h1.215zm9.758 2.3c.393-.074.819-.21 1.283-.411v-.68c-.544.216-.992.358-1.348.423-.355.065-.767.099-1.233.099-.962 0-1.7-.297-2.217-.89-.516-.594-.778-1.453-.788-2.581h5.91v-.603c0-1.156-.278-2.074-.837-2.748-.56-.674-1.32-1.011-2.288-1.011-1.091 0-1.959.393-2.602 1.181s-.965 1.836-.965 3.144c0 1.323.334 2.352.999 3.088.667.735 1.595 1.1 2.788 1.1.473-.003.905-.04 1.298-.111zm-3.419-6.958c.479-.519 1.113-.782 1.901-.782.73 0 1.302.269 1.713.803.411.535.618 1.28.618 2.229h-5.072c.083-.98.361-1.731.84-2.25zm10.429-.751c.368 0 .724.043 1.064.126l.142-.717c-.399-.071-.77-.105-1.116-.105-.544 0-1.008.121-1.388.365-.383.244-.742.668-1.079 1.27h-.052l-.074-1.48h-.634v8.203h.748v-4.528c0-.906.223-1.654.671-2.25.445-.588 1.02-.884 1.718-.884zm5.722-.68c-.881 0-1.771.21-2.671.633l.278.649c.816-.423 1.602-.633 2.362-.633.705 0 1.215.198 1.533.596.318.399.476.986.476 1.765v.544l-1.561.047c-1.264.024-2.228.259-2.893.701-.668.442-.998 1.064-.998 1.864 0 .73.222 1.302.67 1.713s1.073.618 1.88.618c.593 0 1.106-.108 1.542-.328.436-.219.859-.593 1.27-1.122h.062l.189 1.298h.55v-5.455c0-.992-.223-1.722-.668-2.189-.448-.466-1.122-.701-2.021-.701zm1.947 4.979c0 .891-.253 1.586-.757 2.087-.507.5-1.196.751-2.071.751-.575 0-1.017-.142-1.332-.427-.316-.284-.473-.683-.473-1.196 0-.643.244-1.119.735-1.422.492-.303 1.311-.485 2.464-.541l1.434-.062zm8.729 3.135v-.696c-.64.266-1.332.399-2.074.399-.93 0-1.657-.312-2.173-.94-.519-.627-.776-1.493-.776-2.599 0-1.169.26-2.062.776-2.683.519-.622 1.28-.934 2.287-.934.523 0 1.141.118 1.849.356l.204-.665c-.649-.247-1.329-.371-2.037-.371-1.196 0-2.142.377-2.831 1.135-.69.757-1.033 1.814-1.033 3.174 0 1.323.331 2.355.995 3.094.665.739 1.583 1.11 2.755 1.11.85.003 1.536-.124 2.058-.38zm5.413-.402c-.353.08-.764.12-1.237.12s-.819-.151-1.042-.451c-.222-.303-.33-.767-.33-1.397v-5.193h2.408v-.649h-2.408v-1.985h-.387l-.377 1.858-1.215.34v.439h1.215v5.298c0 .832.173 1.44.516 1.827.344.386.878.581 1.605.581.473 0 .89-.062 1.252-.182zm2.142-9.116c.154 0 .278-.065.364-.194.087-.13.133-.309.133-.535 0-.232-.043-.411-.133-.535-.089-.127-.21-.188-.364-.188-.319 0-.476.241-.476.723 0 .485.16.729.476.729zm-.368 9.749h.748v-8.203h-.748zm6.043 0 3.168-8.203h-.77l-2.12 5.561c-.216.575-.427 1.202-.634 1.885h-.046c-.142-.532-.352-1.156-.634-1.87l-2.12-5.576h-.77l3.168 8.203zm10.438-.367v-.68c-.544.216-.992.358-1.348.423-.355.065-.766.099-1.233.099-.961 0-1.7-.297-2.216-.89-.516-.594-.779-1.453-.788-2.581h5.91v-.603c0-1.156-.279-2.074-.838-2.748-.56-.674-1.32-1.011-2.287-1.011-1.092 0-1.96.393-2.603 1.181s-.968 1.836-.968 3.144c0 1.323.334 2.352.999 3.088.668.735 1.595 1.1 2.788 1.1.473 0 .906-.037 1.298-.108.393-.077.822-.213 1.286-.414zm-4.701-6.547c.479-.519 1.112-.782 1.901-.782.729 0 1.301.269 1.712.803.411.535.618 1.28.618 2.229h-5.072c.083-.98.362-1.731.841-2.25zm14.472-4.117h-2.98v11.031h2.64c1.882 0 3.307-.473 4.278-1.421.97-.949 1.456-2.35 1.456-4.201 0-1.765-.461-3.11-1.379-4.031-.915-.918-2.253-1.378-4.015-1.378zm-.384 10.351h-1.826v-9.674h2.03c1.555 0 2.733.398 3.537 1.196.803.797 1.202 1.987 1.202 3.567 0 3.276-1.648 4.911-4.943 4.911zm12.859-.618h.062l.188 1.298h.551v-5.455c0-.992-.223-1.722-.668-2.189-.445-.466-1.119-.701-2.018-.701-.881 0-1.772.21-2.671.633l.278.649c.816-.423 1.601-.633 2.362-.633.704 0 1.214.198 1.533.596.318.399.476.986.476 1.765v.544l-1.561.047c-1.264.024-2.229.259-2.893.701-.668.442-.999 1.064-.999 1.864 0 .73.223 1.302.671 1.713s1.073.618 1.879.618c.594 0 1.107-.108 1.543-.328.429-.219.853-.593 1.267-1.122zm-4.102.343c-.315-.284-.473-.683-.473-1.196 0-.643.245-1.119.736-1.422s1.311-.485 2.464-.541l1.434-.062v.807c0 .89-.254 1.586-.757 2.087-.507.5-1.197.751-2.071.751-.575.003-1.017-.139-1.333-.424zm8.683-.009c-.223-.303-.331-.767-.331-1.397v-5.193h2.408v-.649h-2.408v-1.985h-.386l-.377 1.858-1.215.34v.439h1.215v5.298c0 .832.173 1.44.516 1.827.343.386.878.581 1.604.581.473 0 .89-.062 1.252-.182v-.603c-.352.08-.763.12-1.236.12-.473-.003-.823-.154-1.042-.454zm7.511.788c.436-.219.859-.593 1.271-1.122h.061l.189 1.298h.55v-5.455c0-.992-.222-1.722-.668-2.189-.445-.466-1.119-.701-2.018-.701-.881 0-1.771.21-2.671.633l.279.649c.816-.423 1.601-.633 2.361-.633.705 0 1.215.198 1.533.596.319.399.476.986.476 1.765v.544l-1.561.047c-1.264.024-2.228.259-2.893.701-.668.442-.998 1.064-.998 1.864 0 .73.222 1.302.67 1.713.449.411 1.073.618 1.88.618.59 0 1.103-.108 1.539-.328zm-3.301-1.975c0-.643.244-1.119.736-1.422.491-.303 1.31-.485 2.463-.541l1.434-.062v.807c0 .89-.253 1.586-.757 2.087-.507.5-1.196.751-2.071.751-.575 0-1.017-.142-1.332-.427-.315-.281-.473-.68-.473-1.193zm-97.234 17.965c-.297.794-.495 1.382-.597 1.759-.145-.569-.429-1.419-.853-2.55l-2.779-7.508h-.822l4.114 11.031h.68l2.263-6.046 1.864-4.985h-.838zm5.242 2.732h.748v-8.203h-.748zm.371-11.204c-.318 0-.476.241-.476.723 0 .488.158.732.476.732.155 0 .278-.064.365-.194s.133-.309.133-.535c0-.232-.043-.411-.133-.535-.087-.13-.21-.191-.365-.191zm7.199 7.384c-.337-.213-.875-.454-1.613-.72-.884-.319-1.481-.603-1.784-.86-.303-.256-.457-.599-.457-1.026 0-.392.194-.698.587-.921.393-.222.924-.331 1.592-.331.689 0 1.437.167 2.241.498l.278-.68c-.794-.331-1.635-.498-2.519-.498-.924 0-1.648.18-2.161.535-.516.359-.772.844-.772 1.456 0 .386.083.717.253.986s.417.51.751.723c.331.214.909.47 1.728.767.763.272 1.314.547 1.647.831.334.282.501.628.501 1.042 0 .448-.21.807-.63 1.076-.421.269-1.036.405-1.846.405-.915 0-1.786-.207-2.612-.619v.807c.643.337 1.515.507 2.612.507 1.027 0 1.818-.198 2.377-.593.56-.396.838-.959.838-1.694 0-.368-.083-.686-.253-.958-.167-.279-.421-.52-.758-.733zm8.754.145c0 1.113-.229 1.914-.689 2.408-.461.495-1.178.739-2.155.739-.729 0-1.267-.189-1.613-.563s-.52-.973-.52-1.799v-5.313h-.738v5.357c0 1.996.933 2.995 2.8 2.995 1.363 0 2.312-.427 2.844-1.283h.046l.136 1.131h.634v-8.203h-.739v4.531zm6.33-4.67c-.881 0-1.771.21-2.67.633l.278.65c.816-.424 1.601-.634 2.361-.634.705 0 1.215.198 1.534.596.318.399.476.986.476 1.765v.544l-1.561.047c-1.265.025-2.229.259-2.894.701-.667.442-.998 1.064-.998 1.864 0 .73.223 1.302.671 1.713s1.072.618 1.879.618c.594 0 1.107-.108 1.543-.328.435-.219.859-.593 1.27-1.122h.062l.188 1.298h.551v-5.455c0-.992-.223-1.722-.668-2.189-.445-.466-1.119-.701-2.022-.701zm1.948 4.979c0 .891-.254 1.586-.758 2.087-.507.501-1.196.751-2.071.751-.575 0-1.017-.142-1.332-.427-.315-.284-.473-.683-.473-1.196 0-.643.244-1.119.736-1.422.491-.303 1.311-.485 2.463-.541l1.435-.061zm3.397 3.366h.748v-11.742h-.748zm3.863-11.204c-.318 0-.476.241-.476.723 0 .488.158.732.476.732.155 0 .279-.064.365-.194.087-.13.133-.309.133-.535 0-.232-.043-.411-.133-.535-.086-.13-.21-.191-.365-.191zm-.37 11.204h.748v-8.203h-.748zm8.58-7.727v-.476h-5.486v.665h4.513l-4.869 7.062v.476h5.858v-.664h-4.912zm4.884-.618c-.881 0-1.771.21-2.671.633l.279.65c.816-.424 1.601-.634 2.361-.634.705 0 1.215.198 1.533.596.319.399.476.986.476 1.765v.544l-1.561.047c-1.264.025-2.228.259-2.893.701-.668.442-.998 1.064-.998 1.864 0 .73.222 1.302.67 1.713.449.411 1.073.618 1.88.618.593 0 1.106-.108 1.542-.328.436-.219.859-.593 1.271-1.122h.061l.189 1.298h.55v-5.455c0-.992-.222-1.722-.667-2.189-.446-.466-1.123-.701-2.022-.701zm1.947 4.979c0 .891-.253 1.586-.757 2.087-.507.501-1.196.751-2.071.751-.575 0-1.017-.142-1.332-.427-.315-.284-.473-.683-.473-1.196 0-.643.244-1.119.736-1.422.491-.303 1.31-.485 2.463-.541l1.434-.061zm4.519 2.402c-.222-.303-.33-.766-.33-1.397v-5.193h2.408v-.649h-2.408v-1.984h-.387l-.377 1.857-1.215.34v.439h1.215v5.298c0 .832.173 1.441.516 1.827s.878.581 1.605.581c.473 0 .89-.062 1.251-.182v-.603c-.352.08-.763.12-1.236.12-.473-.003-.819-.154-1.042-.454zm4.424-10.24c-.319 0-.476.241-.476.723 0 .488.157.732.476.732.154 0 .278-.064.364-.194.087-.13.133-.309.133-.535 0-.232-.043-.411-.133-.535-.086-.13-.21-.191-.364-.191zm-.371 11.204h.748v-8.203h-.748zm6.664-8.361c-1.131 0-2.022.374-2.671 1.122s-.973 1.79-.973 3.128c0 .85.145 1.602.439 2.251.29.649.71 1.146 1.261 1.493.547.346 1.18.519 1.901.519 1.14 0 2.037-.377 2.686-1.128s.973-1.796.973-3.135c0-1.316-.321-2.355-.961-3.112-.646-.758-1.53-1.138-2.655-1.138zm2.086 6.887c-.494.631-1.196.946-2.102.946-.905 0-1.607-.315-2.101-.946-.495-.63-.742-1.511-.742-2.637 0-1.137.244-2.015.735-2.636.492-.621 1.19-.934 2.093-.934s1.607.313 2.108.937.751 1.502.751 2.633c0 1.126-.247 2.007-.742 2.637zm7.468-6.887c-1.363 0-2.312.427-2.844 1.283h-.046l-.142-1.125h-.634v8.203h.748v-4.528c0-1.113.229-1.916.683-2.411.455-.494 1.175-.742 2.155-.742.729 0 1.267.189 1.613.563.347.374.52.974.52 1.799v5.319h.738v-5.366c0-1.996-.93-2.995-2.791-2.995zm12.352-2.67h-2.702v11.031h.77v-4.559h1.706c1.329 0 2.356-.284 3.079-.853s1.088-1.385 1.088-2.451c0-2.111-1.314-3.168-3.941-3.168zm2.281 5.196c-.553.411-1.453.615-2.695.615h-1.518v-5.116h1.827c1.097 0 1.907.204 2.429.615.523.411.785 1.042.785 1.892 0 .918-.275 1.583-.828 1.994zm3.87 5.835h.748v-11.742h-.748zm6.34-8.345c-.881 0-1.771.21-2.671.633l.278.65c.816-.424 1.601-.634 2.362-.634.705 0 1.215.198 1.533.596.318.399.476.986.476 1.765v.544l-1.561.047c-1.264.025-2.229.259-2.893.701-.668.442-.999 1.064-.999 1.864 0 .73.223 1.302.671 1.713s1.073.618 1.879.618c.594 0 1.107-.108 1.543-.328.436-.219.859-.593 1.27-1.122h.062l.189 1.298h.55v-5.455c0-.992-.223-1.722-.668-2.189-.448-.466-1.122-.701-2.021-.701zm1.947 4.979c0 .891-.253 1.586-.757 2.087-.507.501-1.196.751-2.071.751-.575 0-1.017-.142-1.332-.427-.316-.284-.473-.683-.473-1.196 0-.643.244-1.119.735-1.422.492-.303 1.311-.485 2.464-.541l1.434-.061zm4.519 2.402c-.222-.303-.331-.766-.331-1.397v-5.193h2.408v-.649h-2.408v-1.984h-.386l-.377 1.857-1.215.34v.439h1.215v5.298c0 .832.173 1.441.516 1.827s.878.581 1.604.581c.473 0 .891-.062 1.252-.182v-.603c-.352.08-.763.12-1.236.12-.473-.003-.819-.154-1.042-.454zm4.977-10.154c-.371.47-.554 1.209-.554 2.216v.634l-1.524.278v.439h1.524v7.555h.748v-7.555h1.932v-.649h-1.932v-.763c0-.776.121-1.336.365-1.679s.658-.516 1.243-.516c.398 0 .797.062 1.199.188l.173-.649c-.451-.136-.906-.204-1.357-.204-.844 0-1.446.235-1.817.705zm6.877 2.757c-1.131 0-2.021.374-2.671 1.122-.649.748-.973 1.79-.973 3.128 0 .85.145 1.602.439 2.251.29.649.711 1.146 1.261 1.493.547.346 1.181.519 1.901.519 1.14 0 2.037-.377 2.686-1.128s.974-1.796.974-3.135c0-1.316-.322-2.355-.962-3.112-.643-.758-1.527-1.138-2.655-1.138zm2.09 6.887c-.495.631-1.197.946-2.102.946-.906 0-1.608-.315-2.102-.946-.495-.63-.742-1.511-.742-2.637 0-1.137.244-2.015.736-2.636.491-.621 1.19-.934 2.092-.934.906 0 1.608.313 2.108.937.501.624.751 1.502.751 2.633 0 1.126-.247 2.007-.741 2.637zm5.638-6.519c-.384.244-.742.668-1.079 1.271h-.053l-.074-1.481h-.634v8.203h.748v-4.528c0-.906.223-1.654.671-2.25.448-.594 1.02-.89 1.722-.89.368 0 .723.043 1.063.13l.142-.718c-.398-.071-.769-.105-1.115-.105-.544 0-1.008.124-1.391.368zm14.49.349c-.448-.479-1.119-.717-2.015-.717-.575 0-1.085.127-1.536.377-.452.251-.81.612-1.076 1.079h-.031c-.368-.97-1.196-1.456-2.491-1.456-.504 0-.965.112-1.382.337-.417.223-.739.541-.964.946h-.047l-.157-1.125h-.619v8.203h.749v-4.528c0-1.1.194-1.904.587-2.405.392-.5 1.02-.751 1.879-.751 1.267 0 1.901.693 1.901 2.074v5.607h.764v-4.806c0-.992.2-1.719.602-2.182.402-.464 1.023-.696 1.864-.696.643 0 1.122.183 1.434.55.313.368.467.952.467 1.75v5.381h.739v-5.366c.003-1.035-.22-1.792-.668-2.272z"/></g></svg>