<?xml version="1.0" encoding="utf-8"?>
<!-- Generator: Adobe Illustrator 23.0.1, SVG Export Plug-In . SVG Version: 6.00 Build 0)  -->
<svg version="1.1" id="Layer_1" xmlns="http://www.w3.org/2000/svg" xmlns:xlink="http://www.w3.org/1999/xlink" x="0px" y="0px"
	 width="88px" height="86px" viewBox="0 0 88 86" style="enable-background:new 0 0 88 86;" xml:space="preserve">
<style type="text/css">
	.st0{fill:#F6CA64;}
</style>
<g>
	<path class="st0" d="M85.1,56.8c0,19.2-17.9,28.2-41.7,28.2c-20.9,0-38.5-7.4-41.9-23.5l22.6-1.2c2.7,4.7,10.8,6.3,18.5,6.3
		c12.5,0,19.9-4,19.9-9.9c0-6-8.1-9.9-19.6-9.9c-7.7,0-14.7,1.7-18.8,5.2L4.3,50.2L8.6,5.3h18.3h51.9v18.5H25l-1.6,14.8
		c6.6-5.8,16.2-8.5,26.7-8.5C70.3,30.1,85.1,39.5,85.1,56.8z"/>
</g>
</svg>
