<?xml version="1.0" encoding="utf-8"?>
<!-- Generator: Adobe Illustrator 23.0.1, SVG Export Plug-In . SVG Version: 6.00 Build 0)  -->
<svg version="1.1" id="Layer_1" xmlns="http://www.w3.org/2000/svg" xmlns:xlink="http://www.w3.org/1999/xlink" x="0px" y="0px"
	 width="323px" height="212px" viewBox="0 0 323 212" style="enable-background:new 0 0 323 212;" xml:space="preserve">
<style type="text/css">
	.st0{fill:#FFFFFF;}
</style>
<g>
	<path class="st0" d="M296.8,66.2c5.7-17,14.6-32.4,26.2-45.6c-0.9-0.5-1.5-1-2.6-1.5c-0.5-0.3-1-0.7-1.5-0.9
		c-0.9-0.5-1.7-1-2.6-1.5c-1.2-0.7-2.4-1.4-3.6-1.9c-1-0.5-2.2-1-3.3-1.7c-0.9-0.3-1.7-0.9-2.6-1.2c-0.5-0.2-0.9-0.3-1.4-0.5
		c-1-0.5-2.1-0.9-3.1-1.2c-1-0.3-2.1-0.9-3.3-1.2c-0.3-0.2-0.7-0.3-1-0.3c-0.9-0.3-1.7-0.5-2.6-0.9c-1.2-0.3-2.2-0.7-3.4-1
		c-0.7-0.2-1.2-0.3-1.9-0.5c-1.9-0.5-3.9-1-5.8-1.4c-0.5-0.2-1-0.2-1.5-0.3c-1-0.2-2.1-0.3-3.1-0.5c-1.2-0.2-2.6-0.3-3.8-0.5l0,0
		c-1.2-0.2-2.2-0.3-3.4-0.3c-1.2,0-2.4-0.2-3.6-0.2c-0.5,0-1,0-1.5,0c-1.2,0-2.4,0-3.6,0s-2.4,0-3.6,0c-0.5,0-1,0-1.4,0
		c-1.2,0-2.2,0.2-3.4,0.2c-1.2,0.2-2.4,0.2-3.6,0.3c-1.4,0.2-2.6,0.3-3.9,0.5c-1,0.2-2.1,0.3-3.1,0.5c-0.5,0-1,0.2-1.5,0.3
		c-1,0.2-2.1,0.3-3.1,0.7c-1,0.2-2.1,0.5-2.9,0.7c-0.7,0.2-1.2,0.3-1.9,0.5c-1.2,0.3-2.4,0.7-3.4,1c-0.9,0.3-1.7,0.5-2.6,0.9
		c-0.3,0.2-0.7,0.2-1,0.3c-1,0.3-2.2,0.9-3.3,1.2c-1,0.3-2.1,0.9-3.1,1.2c-0.5,0.2-0.9,0.3-1.4,0.5c-0.9,0.3-1.7,0.9-2.6,1.2
		c-1,0.5-2.2,1-3.3,1.7c-1.2,0.7-2.4,1.2-3.6,1.9c-1,0.5-1.9,1.2-2.9,1.7c-0.3,0.2-0.7,0.3-1,0.7c-0.9,0.5-1.7,1-2.4,1.5
		c-0.9,0.5-1.7,1.2-2.6,1.7l-0.5,0.3c-0.7,0.5-1.4,1-2.2,1.5c-1.5,1.2-3.1,2.4-4.5,3.8c-0.7,0.5-1.2,1-1.9,1.7
		c-0.7,0.5-1.2,1.2-1.9,1.7c-0.7,0.5-1.2,1.2-1.7,1.7c-0.9,0.9-1.5,1.5-2.2,2.4c-0.7,0.9-1.4,1.5-2.2,2.4l0,0
		c-0.7,0.9-1.5,1.7-2.2,2.6c-1.2,1.5-2.6,3.1-3.8,4.8c-0.3,0.3-0.5,0.7-0.7,1c-0.2,0.2-0.3,0.5-0.5,0.7c-0.9,1.2-1.7,2.6-2.6,3.9
		c-0.2,0.2-0.3,0.5-0.5,0.7c-0.3,0.3-0.5,0.9-0.9,1.4l-0.3,0.5l-0.2,0.2c-1,1.7-2.1,3.6-3.1,5.5c-0.3,0.7-0.7,1.4-1,2.1
		c-0.3,0.7-0.7,1.4-1,2.1c-0.3,0.7-0.5,1.2-0.9,1.9l-0.2,0.3c-0.5,1.4-1.2,2.7-1.7,4.3c-0.2,0.5-0.3,1-0.7,1.7l-0.2,0.5
		c-0.5,1.4-1,2.9-1.5,4.5l0,0c-0.3,1.2-0.7,2.2-1,3.4c-0.3,1.2-0.5,2.2-0.9,3.4l0,0c-0.2,0.7-0.3,1.4-0.5,2.1
		c-0.2,0.9-0.3,1.7-0.5,2.4c-1.2,6.3-1.9,12.9-1.9,19.6l0,0c0,16.5-7.7,31.2-19.7,40.8c-8.9,7.2-20.4,11.5-32.8,11.5
		c-28.5-0.3-52-23.7-52-52.7c0-28.8,23.5-52.3,52.5-52.3c12.3,0,23.8,4.3,32.8,11.5c5.7-17,14.8-32.4,26.2-45.6
		c-16.6-11.3-37-18-59-18c-58,0-105,46.8-105,104.6s47,104.5,105,104.5c22,0,42.2-6.7,59.2-18c7.2-5,13.9-10.6,19.7-17.3l0,0l0,0
		c16.3-18.4,26.2-42.5,26.2-69.1l0,0c0-1,0-1.9,0.2-2.9c0-0.9,0.2-1.7,0.2-2.6c0-0.5,0.2-1.2,0.2-1.7c0-0.5,0.2-0.9,0.2-1.4
		c0-0.3,0.2-0.9,0.2-1.2c0.2-0.5,0.2-1.2,0.3-1.7c0-0.3,0.2-0.5,0.2-0.9c0.2-0.7,0.3-1.4,0.5-2.1c0-0.2,0.2-0.5,0.2-0.7
		c0.2-0.3,0.2-0.9,0.3-1.2c0.2-0.5,0.3-1,0.5-1.7c1-2.7,2.2-5.5,3.8-8.1c0.3-0.5,0.5-1,0.9-1.5c0.2-0.3,0.3-0.7,0.7-1
		c0.3-0.5,0.5-0.9,0.9-1.4l0.5-0.7c0.5-0.7,1-1.4,1.5-2.1c0.5-0.7,1.2-1.5,1.9-2.2c1.2-1.4,2.6-2.7,4.1-4.1c0.7-0.7,1.4-1.2,2.2-1.9
		c0.5-0.5,1.2-0.9,1.7-1.4c1.7-1.2,3.4-2.4,5.3-3.4c1.4-0.9,2.9-1.5,4.5-2.2c0.5-0.2,1-0.5,1.5-0.7c2.4-1,4.8-1.7,7.4-2.4
		c0.5-0.2,1-0.3,1.5-0.3c0.7-0.2,1.4-0.3,2.1-0.3c0.3,0,0.7-0.2,1.2-0.2s1.2-0.2,1.7-0.2c1-0.2,2.1-0.2,3.3-0.3c0.9,0,1.7,0,2.6,0
		s1.7,0,2.6,0c1,0,2.2,0.2,3.3,0.3c0.5,0,1.2,0.2,1.7,0.2c0.3,0,0.7,0,1,0.2c0.7,0.2,1.4,0.2,2.1,0.3c0.7,0.2,1.2,0.2,1.9,0.3
		c2.6,0.5,5,1.4,7.2,2.2c0.5,0.2,1,0.5,1.5,0.7c1.5,0.7,3.1,1.4,4.5,2.2c1.9,1,3.6,2.2,5.3,3.4C295.6,65.3,296.2,65.7,296.8,66.2
		L296.8,66.2z"/>
	<path class="st0" d="M204.8,193.3L204.8,193.3L204.8,193.3c0.9,0.5,1.5,1.2,2.4,1.7c0.3,0.2,0.7,0.5,1,0.7c1,0.5,1.9,1.2,2.9,1.7
		c0.5,0.3,1.2,0.7,1.7,1c0.5,0.3,1.2,0.7,1.7,0.9c1,0.5,2.2,1,3.3,1.7c0.9,0.3,1.7,0.9,2.6,1.2c0.5,0.2,0.9,0.3,1.4,0.7
		c0.5,0.2,1,0.5,1.5,0.7c0.3,0.2,0.5,0.2,0.9,0.3c0.2,0.2,0.3,0.2,0.7,0.3c0.2,0.2,0.5,0.2,0.7,0.3c0.3,0.2,0.7,0.2,0.9,0.3l0.5,0.2
		l0.5,0.2l0.5,0.2c0.3,0.2,0.7,0.2,1,0.3c0.9,0.3,1.7,0.5,2.6,0.9c1.2,0.3,2.2,0.7,3.4,1c0.5,0.2,1.2,0.3,1.9,0.5
		c0.9,0.3,1.9,0.5,2.9,0.7c1,0.2,2.1,0.5,3.1,0.7c0.5,0.2,1,0.2,1.5,0.3c1,0.2,2.1,0.3,3.1,0.5c1.2,0.2,2.6,0.3,3.9,0.5
		c1.2,0.2,2.4,0.3,3.6,0.3c1.2,0.2,2.2,0.2,3.4,0.2c0.5,0,1,0,1.4,0c1.2,0,2.4,0,3.6,0c1.2,0,2.4,0,3.6,0c0.5,0,1,0,1.5,0
		c1.2,0,2.4-0.2,3.6-0.2c1.2,0,2.4-0.2,3.4-0.3l0,0c1.4-0.2,2.6-0.3,3.8-0.5c1-0.2,2.1-0.3,3.1-0.5c0.5-0.2,1-0.2,1.5-0.3
		c2.1-0.3,3.9-0.9,5.8-1.4c0.7-0.2,1.2-0.3,1.9-0.5c1.2-0.3,2.4-0.7,3.4-1c0.9-0.3,1.7-0.5,2.6-0.9c0.3-0.2,0.7-0.2,1-0.3l0.5-0.2
		l0.5-0.2l0.5-0.2c0.3-0.2,0.7-0.2,0.9-0.3c0.2,0,0.5-0.2,0.7-0.3c0.5-0.2,1-0.3,1.5-0.7c0.5-0.2,1-0.5,1.5-0.7
		c0.5-0.2,0.9-0.3,1.4-0.7c0.9-0.3,1.7-0.9,2.6-1.2c1-0.5,2.2-1,3.3-1.7c1.2-0.7,2.4-1.2,3.6-1.9c0.9-0.5,1.7-1,2.6-1.5
		c0.5-0.3,1-0.7,1.5-0.9c0.9-0.5,1.7-1,2.6-1.7c-11.7-13-20.8-28.6-26.2-45.6c-0.5,0.5-1.2,0.9-1.7,1.4c-0.7,0.5-1.5,1-2.4,1.5
		c-0.5,0.3-1.2,0.7-1.7,1c-1.7,1-3.8,2.1-5.7,2.9c-0.5,0.3-1,0.5-1.5,0.7c-0.5,0.2-1.2,0.5-1.7,0.7c-0.5,0.2-0.9,0.3-1.4,0.5
		c-0.3,0.2-0.7,0.2-1,0.3l-0.5,0.2c-0.5,0.2-1,0.3-1.7,0.5l0,0c-0.7,0.2-1.4,0.3-2.1,0.5l0,0l-0.7,0.2l-0.5,0.2l-0.5,0.2h-0.5
		c-0.5,0.2-1.2,0.2-1.7,0.3c-0.5,0-1.2,0.2-1.7,0.2c-1,0.2-2.1,0.2-3.3,0.2c-0.9,0-1.7,0-2.6,0s-1.7,0-2.6,0c-1,0-2.1-0.2-3.3-0.2
		c-0.5,0-1.2-0.2-1.7-0.2c-0.3,0-0.7-0.2-1.2-0.2c-0.3,0-0.5-0.2-0.9-0.2c-0.5,0-0.9-0.2-1.2-0.2l-0.5-0.2l0,0c-0.3,0-0.7-0.2-1-0.2
		c-0.7-0.2-1.2-0.3-1.9-0.5c-0.5-0.2-0.9-0.2-1.4-0.3c-1.4-0.3-2.7-0.9-4.1-1.5c-0.5-0.2-1-0.3-1.5-0.7c-1.5-0.7-3.1-1.4-4.5-2.2
		c-0.5-0.3-1-0.7-1.5-0.9c-0.3-0.2-0.7-0.5-1.2-0.7c-0.3-0.2-0.7-0.5-1-0.7c-0.5-0.3-0.9-0.7-1.4-1c-0.5-0.5-1.2-0.9-1.7-1.4
		C225.4,164.6,216.5,180.1,204.8,193.3L204.8,193.3z"/>
</g>
</svg>
