<?xml version="1.0" encoding="utf-8"?>
<!-- Generator: Adobe Illustrator 23.0.1, SVG Export Plug-In . SVG Version: 6.00 Build 0)  -->
<svg version="1.1" id="Layer_1" xmlns="http://www.w3.org/2000/svg" xmlns:xlink="http://www.w3.org/1999/xlink" x="0px" y="0px"
	 width="168px" height="193px" viewBox="0 0 168 193" style="enable-background:new 0 0 168 193;" xml:space="preserve">
<style type="text/css">
	.st0{fill:#F6CA64;}
</style>
<path class="st0" d="M98.7,71.4L160,40.2V0.7H-18.9v44.4H83.3L27.6,75.5V111c17.8-3,29.6-3.8,39.3-3.8c32.3,0,46.5,8.9,46.5,20.4
	c0,13.5-19.1,20.2-47.3,20.2c-26.9,0-41.2-6.5-45.7-18.8l-52.7,2.7c5.9,41.2,45.7,60.5,98.5,60.5c53.8,0,101.4-16.4,101.4-64.6
	C167.5,95.9,146.3,76.3,98.7,71.4L98.7,71.4z"/>
</svg>
