<?xml version="1.0" encoding="utf-8"?>
<!-- Generator: Adobe Illustrator 24.0.1, SVG Export Plug-In . SVG Version: 6.00 Build 0)  -->
<svg version="1.1" id="Layer_1" xmlns="http://www.w3.org/2000/svg" xmlns:xlink="http://www.w3.org/1999/xlink" x="0px" y="0px"
	 viewBox="0 0 512 512" style="enable-background:new 0 0 512 512;" xml:space="preserve">
<style type="text/css">
	.st0{fill:#1A7FF6;}
</style>
<path class="st0" d="M484.3,219.7L484.3,219.7l-24.2,0c-7.5,0-14-5.1-15.9-12.3c-4.5-17.6-11.5-34.4-20.8-50.1
	c-3.8-6.4-2.8-14.6,2.5-19.9l17.1-17.1c7.4-7.4,7.2-19.3,0-26.5L418.2,69c-7.2-7.2-19.1-7.4-26.5,0l-17.2,17.2
	c-5.3,5.3-13.5,6.3-19.9,2.5c-15.7-9.3-32.5-16.3-50.1-20.8c-7.2-1.9-12.3-8.4-12.3-15.9V27.7c0-10.3-8.4-18.7-18.7-18.7h-35.1
	c-10.3,0-18.7,8.4-18.7,18.7v24.2c0,7.5-5.1,14-12.3,15.9c-17.6,4.5-34.4,11.5-50.1,20.8c-6.4,3.8-14.6,2.8-19.9-2.5L120.3,69
	c-7.4-7.4-19.3-7.2-26.5,0L68.9,93.8c-7.2,7.2-7.4,19.1,0,26.5l17.2,17.2c5.3,5.3,6.3,13.5,2.5,19.9c-9.3,15.7-16.3,32.5-20.8,50.1
	c-1.9,7.2-8.4,12.3-15.9,12.3H27.7c-10.3,0-18.7,8.4-18.7,18.7v35.1c0,10.3,8.4,18.7,18.7,18.7h24.2c7.5,0,14,5.1,15.9,12.3
	c4.5,17.6,11.5,34.4,20.8,50.1c3.8,6.4,2.8,14.6-2.5,19.9L69,391.7c-7.4,7.4-7.2,19.3,0,26.5L93.8,443c7.2,7.2,19.1,7.4,26.5,0
	l17.2-17.2c3.9-3.9,12-7.2,19.9-2.5c15.7,9.3,32.5,16.3,50.1,20.8c7.2,1.9,12.3,8.4,12.3,15.9v24.2c0,10.3,8.4,18.7,18.7,18.7h35.1
	c10.3,0,18.7-8.4,18.7-18.7V460c0-7.5,5.1-14,12.3-15.9c17.6-4.5,34.4-11.5,50.1-20.8c6.4-3.8,14.6-2.8,19.9,2.5l17.1,17.1
	c7.4,7.4,19.3,7.2,26.5,0l24.8-24.8c7.2-7.2,7.4-19.1,0-26.5l-17.2-17.2c-5.3-5.3-6.3-13.5-2.5-19.9c9.3-15.7,16.3-32.5,20.8-50.1
	c1.9-7.2,8.4-12.3,15.9-12.3h24.2c10.3,0,18.7-8.4,18.7-18.7v-35.1C503,228.1,494.6,219.7,484.3,219.7z M256,401
	c-79.9,0-145-65.1-145-145s65.1-145,145-145s145,65.1,145,145S335.9,401,256,401z"/>
</svg>
