<svg enable-background="new 0 0 512 512" viewBox="0 0 512 512" xmlns="http://www.w3.org/2000/svg"><path d="m484.3 219.7h-24.2c-7.5 0-14-5.1-15.9-12.3-4.5-17.6-11.5-34.4-20.8-50.1-3.8-6.4-2.8-14.6 2.5-19.9l17.1-17.1c7.4-7.4 7.2-19.3 0-26.5l-24.8-24.8c-7.2-7.2-19.1-7.4-26.5 0l-17.2 17.2c-5.3 5.3-13.5 6.3-19.9 2.5-15.7-9.3-32.5-16.3-50.1-20.8-7.2-1.9-12.3-8.4-12.3-15.9v-24.3c0-10.3-8.4-18.7-18.7-18.7h-35.1c-10.3 0-18.7 8.4-18.7 18.7v24.2c0 7.5-5.1 14-12.3 15.9-17.6 4.5-34.4 11.5-50.1 20.8-6.4 3.8-14.6 2.8-19.9-2.5l-17.1-17.1c-7.4-7.4-19.3-7.2-26.5 0l-24.9 24.8c-7.2 7.2-7.4 19.1 0 26.5l17.2 17.2c5.3 5.3 6.3 13.5 2.5 19.9-9.3 15.7-16.3 32.5-20.8 50.1-1.9 7.2-8.4 12.3-15.9 12.3h-24.2c-10.3 0-18.7 8.4-18.7 18.7v35.1c0 10.3 8.4 18.7 18.7 18.7h24.2c7.5 0 14 5.1 15.9 12.3 4.5 17.6 11.5 34.4 20.8 50.1 3.8 6.4 2.8 14.6-2.5 19.9l-17.1 17.1c-7.4 7.4-7.2 19.3 0 26.5l24.8 24.8c7.2 7.2 19.1 7.4 26.5 0l17.2-17.2c3.9-3.9 12-7.2 19.9-2.5 15.7 9.3 32.5 16.3 50.1 20.8 7.2 1.9 12.3 8.4 12.3 15.9v24.2c0 10.3 8.4 18.7 18.7 18.7h35.1c10.3 0 18.7-8.4 18.7-18.7v-24.2c0-7.5 5.1-14 12.3-15.9 17.6-4.5 34.4-11.5 50.1-20.8 6.4-3.8 14.6-2.8 19.9 2.5l17.1 17.1c7.4 7.4 19.3 7.2 26.5 0l24.8-24.8c7.2-7.2 7.4-19.1 0-26.5l-17.2-17.2c-5.3-5.3-6.3-13.5-2.5-19.9 9.3-15.7 16.3-32.5 20.8-50.1 1.9-7.2 8.4-12.3 15.9-12.3h24.2c10.3 0 18.7-8.4 18.7-18.7v-35.1c.1-10.2-8.3-18.6-18.6-18.6zm-228.3 147.7c-61.4 0-111.4-50-111.4-111.4s50-111.4 111.4-111.4 111.4 50 111.4 111.4-50 111.4-111.4 111.4z"/><ellipse cx="256" cy="256" rx="81.4" ry="81.4"/></svg>