<svg enable-background="new 0 0 100 100" viewBox="0 0 100 100" xmlns="http://www.w3.org/2000/svg"><g fill="none" stroke="#000" stroke-miterlimit="10"><path d="m189.06 86.02h-78.72v-61.97-5.02c0-2.77 2.25-5.02 5.02-5.02h16.75c2.77 0 5.02 2.25 5.02 5.02 0 2.77 2.25 5.02 5.02 5.02h41.87c2.77 0 5.02 2.25 5.02 5.02v3.35" stroke-width="3"/><path d="m189.06 86.02h-78.72l15.65-50.07c.66-2.1 2.6-3.53 4.8-3.53h68.19c3.39 0 5.81 3.29 4.8 6.52z" stroke-width="3"/><g stroke-width="5"><path d="m80 72v13.5h-61v-13.5"/><path d="m49.5 71.5v-55"/><path d="m33.5 31.5 16.5-16.5 16 16"/></g></g></svg>